<?xml version="1.0" encoding="UTF-8"?>
<svg xmlns="http://www.w3.org/2000/svg" xmlns:xlink="http://www.w3.org/1999/xlink" width="372.752pt" height="159.015pt" viewBox="0 0 372.752 159.015">
<defs>
<g>
<g id="glyph-0-0">
<path d="M 2.75 -2.796875 L 4.234375 -2.796875 C 5.6875 -2.796875 6.859375 -3.78125 6.859375 -4.734375 C 6.859375 -5.4375 6.21875 -6.078125 5.0625 -6.078125 L 2.125 -6.078125 C 1.953125 -6.078125 1.859375 -6.078125 1.859375 -5.921875 C 1.859375 -5.8125 1.9375 -5.8125 2.125 -5.8125 C 2.15625 -5.8125 2.3125 -5.8125 2.453125 -5.796875 C 2.609375 -5.765625 2.671875 -5.75 2.671875 -5.65625 C 2.671875 -5.609375 2.65625 -5.578125 2.640625 -5.484375 L 1.4375 -0.671875 C 1.359375 -0.359375 1.34375 -0.28125 0.671875 -0.28125 C 0.5 -0.28125 0.40625 -0.28125 0.40625 -0.109375 C 0.40625 -0.015625 0.46875 0 0.53125 0 C 0.703125 0 0.921875 -0.015625 1.09375 -0.015625 C 1.359375 -0.03125 1.375 -0.03125 1.671875 -0.03125 C 1.953125 -0.03125 1.96875 -0.03125 2.234375 -0.015625 C 2.40625 -0.015625 2.640625 0 2.8125 0 C 2.875 0 3 0 3 -0.15625 C 3 -0.28125 2.90625 -0.28125 2.71875 -0.28125 C 2.6875 -0.28125 2.515625 -0.28125 2.375 -0.296875 C 2.1875 -0.328125 2.171875 -0.359375 2.171875 -0.4375 C 2.171875 -0.46875 2.171875 -0.484375 2.21875 -0.640625 Z M 3.390625 -5.453125 C 3.46875 -5.78125 3.484375 -5.8125 3.859375 -5.8125 L 4.765625 -5.8125 C 5.453125 -5.8125 6.015625 -5.59375 6.015625 -4.9375 C 6.015625 -4.75 5.90625 -3.921875 5.453125 -3.484375 C 5.25 -3.3125 4.84375 -3.046875 4.078125 -3.046875 L 2.78125 -3.046875 Z M 3.390625 -5.453125 "/>
</g>
<g id="glyph-0-1">
<path d="M 3.390625 -5.453125 C 3.453125 -5.6875 3.46875 -5.765625 3.640625 -5.796875 C 3.71875 -5.8125 4.015625 -5.8125 4.1875 -5.8125 C 4.90625 -5.8125 5.875 -5.8125 5.875 -4.90625 C 5.875 -4.578125 5.75 -3.90625 5.234375 -3.53125 C 5.015625 -3.390625 4.578125 -3.15625 3.859375 -3.15625 L 2.8125 -3.15625 Z M 4.78125 -3.015625 C 5.984375 -3.328125 6.734375 -4.015625 6.734375 -4.734375 C 6.734375 -5.515625 5.890625 -6.078125 4.703125 -6.078125 L 2.125 -6.078125 C 1.953125 -6.078125 1.859375 -6.078125 1.859375 -5.921875 C 1.859375 -5.8125 1.9375 -5.8125 2.125 -5.8125 C 2.15625 -5.8125 2.3125 -5.8125 2.453125 -5.796875 C 2.609375 -5.765625 2.671875 -5.75 2.671875 -5.65625 C 2.671875 -5.609375 2.65625 -5.578125 2.640625 -5.484375 L 1.4375 -0.671875 C 1.359375 -0.359375 1.34375 -0.28125 0.671875 -0.28125 C 0.5 -0.28125 0.40625 -0.28125 0.40625 -0.109375 C 0.40625 -0.015625 0.46875 0 0.53125 0 C 0.671875 0 0.9375 -0.015625 1.09375 -0.015625 C 1.28125 -0.03125 1.296875 -0.03125 1.640625 -0.03125 C 1.9375 -0.03125 1.953125 -0.03125 2.21875 -0.015625 C 2.390625 -0.015625 2.625 0 2.78125 0 C 2.84375 0 2.96875 0 2.96875 -0.15625 C 2.96875 -0.28125 2.875 -0.28125 2.6875 -0.28125 C 2.65625 -0.28125 2.5 -0.28125 2.34375 -0.296875 C 2.15625 -0.328125 2.140625 -0.359375 2.140625 -0.4375 C 2.140625 -0.46875 2.140625 -0.484375 2.1875 -0.640625 L 2.765625 -2.9375 L 3.859375 -2.9375 C 4.65625 -2.9375 4.859375 -2.46875 4.859375 -2.125 C 4.859375 -2.0625 4.859375 -2 4.8125 -1.8125 C 4.59375 -0.984375 4.59375 -0.90625 4.59375 -0.78125 C 4.59375 0.03125 5.359375 0.203125 5.8125 0.203125 C 6.578125 0.203125 6.90625 -0.703125 6.90625 -0.84375 C 6.90625 -0.90625 6.84375 -0.953125 6.78125 -0.953125 C 6.6875 -0.953125 6.6875 -0.90625 6.640625 -0.796875 C 6.5 -0.34375 6.15625 -0.03125 5.828125 -0.03125 C 5.5 -0.03125 5.484375 -0.296875 5.484375 -0.546875 C 5.484375 -0.78125 5.546875 -1.296875 5.546875 -1.359375 C 5.5625 -1.5 5.609375 -1.859375 5.609375 -1.984375 C 5.609375 -2.5 5.296875 -2.84375 4.78125 -3.015625 Z M 4.78125 -3.015625 "/>
</g>
<g id="glyph-0-2">
<path d="M 5.828125 -6.03125 C 5.84375 -6.140625 5.84375 -6.15625 5.84375 -6.1875 C 5.84375 -6.1875 5.84375 -6.28125 5.75 -6.28125 C 5.703125 -6.28125 5.6875 -6.265625 5.578125 -6.140625 C 5.453125 -6.015625 5.5625 -6.125 5.15625 -5.640625 C 4.828125 -6.140625 4.3125 -6.28125 3.84375 -6.28125 C 2.6875 -6.28125 1.609375 -5.25 1.609375 -4.1875 C 1.609375 -3.828125 1.71875 -3.515625 1.953125 -3.265625 C 2.203125 -3 2.4375 -2.953125 3.078125 -2.78125 L 3.828125 -2.59375 C 4.109375 -2.5 4.40625 -2.21875 4.40625 -1.703125 C 4.40625 -0.921875 3.640625 -0.078125 2.75 -0.078125 C 2.234375 -0.078125 1.171875 -0.234375 1.171875 -1.375 C 1.171875 -1.453125 1.171875 -1.59375 1.21875 -1.859375 C 1.234375 -1.890625 1.234375 -1.921875 1.234375 -1.921875 C 1.234375 -1.953125 1.21875 -2.015625 1.109375 -2.015625 C 1 -2.015625 1 -1.984375 0.96875 -1.828125 L 0.484375 0.09375 C 0.484375 0.15625 0.53125 0.203125 0.59375 0.203125 C 0.640625 0.203125 0.65625 0.1875 0.765625 0.0625 C 0.8125 0 1.078125 -0.328125 1.1875 -0.4375 C 1.640625 0.15625 2.46875 0.203125 2.734375 0.203125 C 3.96875 0.203125 5.03125 -0.953125 5.03125 -2.078125 C 5.03125 -3.171875 4.15625 -3.40625 3.890625 -3.46875 L 3.078125 -3.671875 C 2.78125 -3.75 2.234375 -3.890625 2.234375 -4.5625 C 2.234375 -5.25 2.953125 -6.03125 3.84375 -6.03125 C 4.1875 -6.03125 4.546875 -5.9375 4.796875 -5.6875 C 5.125 -5.359375 5.140625 -4.875 5.140625 -4.640625 C 5.140625 -4.34375 5.109375 -4.25 5.109375 -4.171875 C 5.109375 -4.109375 5.140625 -4.0625 5.234375 -4.0625 C 5.328125 -4.0625 5.328125 -4.078125 5.375 -4.25 Z M 5.828125 -6.03125 "/>
</g>
<g id="glyph-1-0">
<path d="M 1.359375 -0.375 C 1.78125 0.015625 2.234375 0.078125 2.5 0.078125 C 3.34375 0.078125 4.0625 -0.71875 4.0625 -1.765625 C 4.0625 -2.71875 3.53125 -3.59375 2.75 -3.59375 C 2.390625 -3.59375 1.796875 -3.5 1.34375 -3.140625 L 1.34375 -3.515625 L 0.671875 -3.515625 L 0.671875 1.53125 L 1.359375 1.53125 Z M 1.359375 -2.625 C 1.546875 -2.859375 1.859375 -3.046875 2.234375 -3.046875 C 2.875 -3.046875 3.359375 -2.46875 3.359375 -1.765625 C 3.359375 -0.984375 2.765625 -0.4375 2.15625 -0.4375 C 2.03125 -0.4375 1.84375 -0.453125 1.625 -0.625 C 1.390625 -0.8125 1.359375 -0.921875 1.359375 -1.078125 Z M 1.359375 -2.625 "/>
</g>
<g id="glyph-1-1">
<path d="M 3.40625 -0.859375 C 2.96875 -0.546875 2.46875 -0.4375 2.125 -0.4375 C 1.4375 -0.4375 0.90625 -1 0.890625 -1.734375 L 3.484375 -1.734375 C 3.484375 -2.09375 3.453125 -2.625 3.140625 -3.078125 C 2.859375 -3.484375 2.375 -3.640625 1.984375 -3.640625 C 1.015625 -3.640625 0.28125 -2.78125 0.28125 -1.78125 C 0.28125 -0.765625 1.0625 0.078125 2.109375 0.078125 C 2.578125 0.078125 3.046875 -0.0625 3.453125 -0.296875 Z M 0.9375 -2.203125 C 1.125 -2.84375 1.59375 -3.109375 1.984375 -3.109375 C 2.34375 -3.109375 2.859375 -2.953125 3 -2.203125 Z M 0.9375 -2.203125 "/>
</g>
<g id="glyph-1-2">
<path d="M 1.34375 -1.6875 C 1.34375 -2.546875 2.046875 -3 2.75 -3.015625 L 2.75 -3.59375 C 2.078125 -3.59375 1.59375 -3.265625 1.28125 -2.84375 L 1.28125 -3.578125 L 0.671875 -3.578125 L 0.671875 0 L 1.34375 0 Z M 1.34375 -1.6875 "/>
</g>
<g id="glyph-1-3">
<path d="M 6.015625 -2.34375 C 6.015625 -2.96875 5.84375 -3.59375 4.859375 -3.59375 C 4.203125 -3.59375 3.78125 -3.203125 3.59375 -2.953125 C 3.515625 -3.171875 3.3125 -3.59375 2.53125 -3.59375 C 2.078125 -3.59375 1.640625 -3.421875 1.296875 -3 L 1.296875 -3.578125 L 0.65625 -3.578125 L 0.65625 0 L 1.34375 0 L 1.34375 -1.921875 C 1.34375 -2.453125 1.5625 -3.078125 2.171875 -3.078125 C 3 -3.078125 3 -2.515625 3 -2.296875 L 3 0 L 3.6875 0 L 3.6875 -1.921875 C 3.6875 -2.453125 3.90625 -3.078125 4.515625 -3.078125 C 5.328125 -3.078125 5.328125 -2.515625 5.328125 -2.296875 L 5.328125 0 L 6.015625 0 Z M 6.015625 -2.34375 "/>
</g>
<g id="glyph-1-4">
<path d="M 3.6875 -3.515625 L 3 -3.515625 L 3 -1.21875 C 3 -0.59375 2.453125 -0.390625 2 -0.390625 C 1.40625 -0.390625 1.34375 -0.546875 1.34375 -0.90625 L 1.34375 -3.515625 L 0.65625 -3.515625 L 0.65625 -0.859375 C 0.65625 -0.15625 0.96875 0.078125 1.515625 0.078125 C 1.84375 0.078125 2.546875 0.015625 3.015625 -0.359375 L 3.015625 0 L 3.6875 0 Z M 3.6875 -3.515625 "/>
</g>
<g id="glyph-1-5">
<path d="M 1.484375 -3.015625 L 2.65625 -3.015625 L 2.65625 -3.515625 L 1.484375 -3.515625 L 1.484375 -4.515625 L 0.875 -4.515625 L 0.875 -3.515625 L 0.15625 -3.515625 L 0.15625 -3.015625 L 0.859375 -3.015625 L 0.859375 -1.015625 C 0.859375 -0.484375 0.984375 0.078125 1.5625 0.078125 C 2.125 0.078125 2.5625 -0.109375 2.796875 -0.21875 L 2.671875 -0.71875 C 2.40625 -0.53125 2.125 -0.46875 1.90625 -0.46875 C 1.578125 -0.46875 1.484375 -0.796875 1.484375 -1.15625 Z M 1.484375 -3.015625 "/>
</g>
<g id="glyph-1-6">
<path d="M 3.375 -2.28125 C 3.375 -3.09375 2.75 -3.640625 1.96875 -3.640625 C 1.46875 -3.640625 1.09375 -3.53125 0.65625 -3.296875 L 0.703125 -2.71875 C 0.953125 -2.890625 1.34375 -3.125 1.96875 -3.125 C 2.328125 -3.125 2.6875 -2.875 2.6875 -2.28125 L 2.6875 -1.953125 C 1.515625 -1.921875 0.359375 -1.671875 0.359375 -0.9375 C 0.359375 -0.53125 0.625 0.078125 1.328125 0.078125 C 1.65625 0.078125 2.296875 0.015625 2.703125 -0.296875 L 2.703125 0 L 3.375 0 Z M 2.6875 -1.125 C 2.6875 -0.96875 2.6875 -0.765625 2.40625 -0.59375 C 2.15625 -0.453125 1.84375 -0.4375 1.765625 -0.4375 C 1.328125 -0.4375 0.984375 -0.640625 0.984375 -0.9375 C 0.984375 -1.453125 2.328125 -1.5 2.6875 -1.515625 Z M 2.6875 -1.125 "/>
</g>
<g id="glyph-1-7">
<path d="M 1.390625 -5.4375 L 0.59375 -5.4375 L 0.59375 -4.640625 L 1.390625 -4.640625 Z M 1.328125 -3.515625 L 0.671875 -3.515625 L 0.671875 0 L 1.328125 0 Z M 1.328125 -3.515625 "/>
</g>
<g id="glyph-1-8">
<path d="M 3.96875 -1.734375 C 3.96875 -2.78125 3.125 -3.640625 2.09375 -3.640625 C 1.0625 -3.640625 0.234375 -2.765625 0.234375 -1.734375 C 0.234375 -0.734375 1.078125 0.078125 2.09375 0.078125 C 3.125 0.078125 3.96875 -0.734375 3.96875 -1.734375 Z M 2.09375 -0.46875 C 1.46875 -0.46875 0.921875 -0.921875 0.921875 -1.828125 C 0.921875 -2.71875 1.515625 -3.109375 2.09375 -3.109375 C 2.6875 -3.109375 3.265625 -2.703125 3.265625 -1.828125 C 3.265625 -0.921875 2.703125 -0.46875 2.09375 -0.46875 Z M 2.09375 -0.46875 "/>
</g>
<g id="glyph-1-9">
<path d="M 3.6875 -2.34375 C 3.6875 -2.96875 3.5 -3.59375 2.53125 -3.59375 C 2.078125 -3.59375 1.640625 -3.421875 1.296875 -3 L 1.296875 -3.578125 L 0.65625 -3.578125 L 0.65625 0 L 1.34375 0 L 1.34375 -1.921875 C 1.34375 -2.453125 1.5625 -3.078125 2.171875 -3.078125 C 3 -3.078125 3 -2.515625 3 -2.296875 L 3 0 L 3.6875 0 Z M 3.6875 -2.34375 "/>
</g>
<g id="glyph-1-10">
<path d="M 1.328125 -5.5 L 0.671875 -5.5 L 0.671875 0 L 1.328125 0 Z M 1.328125 -5.5 "/>
</g>
<g id="glyph-1-11">
<path d="M 3.671875 -5.5 L 3 -5.5 L 3 -3.171875 C 2.5 -3.546875 1.984375 -3.59375 1.75 -3.59375 C 0.921875 -3.59375 0.28125 -2.765625 0.28125 -1.765625 C 0.28125 -0.75 0.90625 0.078125 1.734375 0.078125 C 2.21875 0.078125 2.671875 -0.140625 2.984375 -0.40625 L 2.984375 0 L 3.671875 0 Z M 2.984375 -0.984375 C 2.78125 -0.65625 2.484375 -0.4375 2.09375 -0.4375 C 1.546875 -0.4375 0.96875 -0.828125 0.96875 -1.75 C 0.96875 -2.734375 1.640625 -3.078125 2.1875 -3.078125 C 2.5 -3.078125 2.765625 -2.9375 2.984375 -2.671875 Z M 2.984375 -0.984375 "/>
</g>
<g id="glyph-1-12">
<path d="M 1.5 -3.015625 L 2.40625 -3.015625 L 2.40625 -3.515625 L 1.484375 -3.515625 L 1.484375 -4.421875 C 1.484375 -4.96875 1.984375 -5.046875 2.234375 -5.046875 C 2.40625 -5.046875 2.625 -5.03125 2.921875 -4.921875 L 2.921875 -5.5 C 2.703125 -5.546875 2.46875 -5.578125 2.25 -5.578125 C 1.4375 -5.578125 0.84375 -4.984375 0.84375 -4.203125 L 0.84375 -3.515625 L 0.234375 -3.515625 L 0.234375 -3.015625 L 0.84375 -3.015625 L 0.84375 0 L 1.5 0 Z M 1.5 -3.015625 "/>
</g>
<g id="glyph-1-13">
<path d="M 2.890625 -3.390625 C 2.359375 -3.609375 1.953125 -3.640625 1.671875 -3.640625 C 1.46875 -3.640625 0.28125 -3.640625 0.28125 -2.578125 C 0.28125 -2.203125 0.484375 -2 0.59375 -1.90625 C 0.859375 -1.625 1.203125 -1.5625 1.609375 -1.484375 C 1.984375 -1.421875 2.421875 -1.34375 2.421875 -0.953125 C 2.421875 -0.453125 1.765625 -0.453125 1.640625 -0.453125 C 1.140625 -0.453125 0.671875 -0.640625 0.34375 -0.859375 L 0.234375 -0.265625 C 0.5 -0.140625 0.984375 0.078125 1.640625 0.078125 C 2 0.078125 2.359375 0.03125 2.640625 -0.1875 C 2.9375 -0.40625 3.03125 -0.765625 3.03125 -1.03125 C 3.03125 -1.171875 3.015625 -1.484375 2.6875 -1.78125 C 2.390625 -2.046875 2.109375 -2.09375 1.734375 -2.171875 C 1.265625 -2.25 0.890625 -2.328125 0.890625 -2.671875 C 0.890625 -3.125 1.46875 -3.125 1.59375 -3.125 C 2.046875 -3.125 2.390625 -3.03125 2.78125 -2.828125 Z M 2.890625 -3.390625 "/>
</g>
<g id="glyph-1-14">
<path d="M 3.453125 -0.859375 C 3.046875 -0.609375 2.625 -0.46875 2.125 -0.46875 C 1.40625 -0.46875 0.96875 -1.046875 0.96875 -1.765625 C 0.96875 -2.375 1.296875 -3.09375 2.15625 -3.09375 C 2.6875 -3.09375 2.953125 -2.984375 3.34375 -2.71875 L 3.453125 -3.296875 C 2.984375 -3.53125 2.765625 -3.640625 2.15625 -3.640625 C 0.96875 -3.640625 0.28125 -2.671875 0.28125 -1.765625 C 0.28125 -0.796875 1.046875 0.078125 2.125 0.078125 C 2.671875 0.078125 3.15625 -0.09375 3.5 -0.28125 Z M 3.453125 -0.859375 "/>
</g>
<g id="glyph-1-15">
<path d="M 3.6875 -2.34375 C 3.6875 -2.96875 3.5 -3.59375 2.53125 -3.59375 C 1.84375 -3.59375 1.484375 -3.203125 1.328125 -3.03125 L 1.328125 -5.5 L 0.65625 -5.5 L 0.65625 0 L 1.34375 0 L 1.34375 -1.921875 C 1.34375 -2.453125 1.5625 -3.078125 2.171875 -3.078125 C 3 -3.078125 3 -2.515625 3 -2.296875 L 3 0 L 3.6875 0 Z M 3.6875 -2.34375 "/>
</g>
<g id="glyph-1-16">
<path d="M 3.1875 -5.5 L 2.421875 -5.5 L 0.234375 0 L 0.890625 0 L 1.5 -1.5625 L 3.90625 -1.5625 L 4.53125 0 L 5.359375 0 Z M 2.71875 -4.890625 L 3.71875 -2.03125 L 1.703125 -2.03125 Z M 2.71875 -4.890625 "/>
</g>
<g id="glyph-1-17">
<path d="M 3.90625 -5.28125 C 3.40625 -5.53125 2.953125 -5.671875 2.375 -5.671875 C 1.171875 -5.671875 0.46875 -4.859375 0.46875 -4.09375 C 0.46875 -3.765625 0.578125 -3.390625 0.953125 -3.03125 C 1.3125 -2.703125 1.671875 -2.625 2.15625 -2.5 C 2.828125 -2.34375 3.015625 -2.3125 3.234375 -2.0625 C 3.390625 -1.921875 3.515625 -1.6875 3.515625 -1.421875 C 3.515625 -0.9375 3.078125 -0.421875 2.3125 -0.421875 C 1.859375 -0.421875 1.125 -0.5625 0.5 -1.09375 L 0.375 -0.375 C 0.765625 -0.15625 1.421875 0.171875 2.3125 0.171875 C 3.421875 0.171875 4.203125 -0.640625 4.203125 -1.515625 C 4.203125 -2.15625 3.828125 -2.53125 3.671875 -2.6875 C 3.328125 -3.015625 2.96875 -3.109375 2.359375 -3.25 C 1.875 -3.359375 1.625 -3.421875 1.4375 -3.609375 C 1.328125 -3.703125 1.15625 -3.890625 1.15625 -4.1875 C 1.15625 -4.640625 1.59375 -5.09375 2.359375 -5.09375 C 2.96875 -5.09375 3.375 -4.90625 3.78125 -4.5625 Z M 3.90625 -5.28125 "/>
</g>
<g id="glyph-1-18">
<path d="M 2.328125 -1.515625 L 2.328125 -2.015625 L 0.09375 -2.015625 L 0.09375 -1.515625 Z M 2.328125 -1.515625 "/>
</g>
<g id="glyph-1-19">
<path d="M 1.34375 -5.5 L 0.671875 -5.5 L 0.671875 0 L 1.359375 0 L 1.359375 -0.375 C 1.53125 -0.21875 1.921875 0.078125 2.5 0.078125 C 3.359375 0.078125 4.0625 -0.734375 4.0625 -1.765625 C 4.0625 -2.71875 3.515625 -3.59375 2.71875 -3.59375 C 2.21875 -3.59375 1.734375 -3.4375 1.34375 -3.140625 Z M 1.359375 -2.5 C 1.359375 -2.625 1.359375 -2.71875 1.640625 -2.90625 C 1.765625 -2.96875 1.96875 -3.078125 2.234375 -3.078125 C 2.765625 -3.078125 3.359375 -2.71875 3.359375 -1.765625 C 3.359375 -0.796875 2.703125 -0.4375 2.15625 -0.4375 C 1.859375 -0.4375 1.578125 -0.578125 1.359375 -0.9375 Z M 1.359375 -2.5 "/>
</g>
<g id="glyph-1-20">
<path d="M 2.1875 -1.8125 L 3.734375 -3.515625 L 3.03125 -3.515625 L 1.90625 -2.21875 L 0.765625 -3.515625 L 0.046875 -3.515625 L 1.625 -1.8125 L 0 0 L 0.703125 0 L 1.90625 -1.484375 L 3.15625 0 L 3.875 0 Z M 2.1875 -1.8125 "/>
</g>
<g id="glyph-1-21">
<path d="M 4.40625 -2.75 C 4.3125 -2.515625 3.75 -1.109375 3.671875 -0.78125 L 3.65625 -0.78125 C 3.609375 -1.015625 3.234375 -1.921875 3.15625 -2.125 L 1.796875 -5.5 L 0.828125 -5.5 L 0.828125 0 L 1.5 0 L 1.5 -4.859375 C 1.5625 -4.59375 1.984375 -3.546875 2.015625 -3.453125 L 3.34375 -0.171875 L 3.96875 -0.171875 L 5.15625 -3.078125 C 5.15625 -3.09375 5.703125 -4.4375 5.828125 -4.875 L 5.84375 -4.875 L 5.84375 0 L 6.5 0 L 6.5 -5.5 L 5.53125 -5.5 Z M 4.40625 -2.75 "/>
</g>
<g id="glyph-1-22">
<path d="M 0.78125 -5.5 L 0.78125 0 L 3.03125 0 C 4.453125 0 5.59375 -1.203125 5.59375 -2.703125 C 5.59375 -4.25 4.4375 -5.5 3.03125 -5.5 Z M 1.546875 -0.46875 L 1.546875 -5.03125 L 2.8125 -5.03125 C 3.890625 -5.03125 4.828125 -4.171875 4.828125 -2.703125 C 4.828125 -1.234375 3.859375 -0.46875 2.8125 -0.46875 Z M 1.546875 -0.46875 "/>
</g>
<g id="glyph-2-0">
<path d="M 5.3125 -5.359375 C 5.328125 -5.390625 5.34375 -5.4375 5.34375 -5.484375 C 5.34375 -5.53125 5.296875 -5.578125 5.234375 -5.578125 C 5.1875 -5.578125 5.171875 -5.5625 5.078125 -5.46875 C 4.984375 -5.359375 4.78125 -5.109375 4.703125 -5.015625 C 4.390625 -5.46875 3.890625 -5.578125 3.484375 -5.578125 C 2.390625 -5.578125 1.4375 -4.65625 1.4375 -3.75 C 1.4375 -3.28125 1.6875 -3.015625 1.734375 -2.96875 C 1.984375 -2.6875 2.21875 -2.625 2.78125 -2.484375 C 3.0625 -2.421875 3.078125 -2.421875 3.3125 -2.359375 C 3.546875 -2.3125 4.046875 -2.171875 4.046875 -1.515625 C 4.046875 -0.828125 3.359375 -0.09375 2.53125 -0.09375 C 2.015625 -0.09375 1.078125 -0.25 1.078125 -1.234375 C 1.078125 -1.265625 1.078125 -1.421875 1.125 -1.609375 L 1.140625 -1.6875 C 1.140625 -1.796875 1.046875 -1.796875 1.015625 -1.796875 C 0.90625 -1.796875 0.90625 -1.765625 0.859375 -1.578125 L 0.53125 -0.296875 C 0.5 -0.171875 0.453125 0.046875 0.453125 0.0625 C 0.453125 0.125 0.5 0.171875 0.546875 0.171875 C 0.609375 0.171875 0.625 0.15625 0.703125 0.0625 L 1.078125 -0.390625 C 1.265625 -0.15625 1.71875 0.171875 2.515625 0.171875 C 3.671875 0.171875 4.609375 -0.875 4.609375 -1.828125 C 4.609375 -2.1875 4.484375 -2.46875 4.28125 -2.6875 C 4.046875 -2.953125 3.78125 -3.015625 3.40625 -3.109375 C 3.171875 -3.171875 2.875 -3.234375 2.6875 -3.28125 C 2.453125 -3.34375 2 -3.5 2 -4.0625 C 2 -4.671875 2.671875 -5.34375 3.484375 -5.34375 C 4.1875 -5.34375 4.6875 -4.96875 4.6875 -4.109375 C 4.6875 -3.921875 4.65625 -3.75 4.65625 -3.71875 C 4.65625 -3.625 4.71875 -3.609375 4.78125 -3.609375 C 4.875 -3.609375 4.875 -3.640625 4.90625 -3.765625 Z M 5.3125 -5.359375 "/>
</g>
<g id="glyph-2-1">
<path d="M 1.75 -3.15625 L 2.53125 -3.15625 C 2.671875 -3.15625 2.765625 -3.15625 2.765625 -3.296875 C 2.765625 -3.421875 2.671875 -3.421875 2.53125 -3.421875 L 1.8125 -3.421875 L 2.09375 -4.546875 C 2.125 -4.65625 2.125 -4.703125 2.125 -4.703125 C 2.125 -4.875 2 -4.953125 1.875 -4.953125 C 1.59375 -4.953125 1.546875 -4.734375 1.453125 -4.375 L 1.21875 -3.421875 L 0.453125 -3.421875 C 0.296875 -3.421875 0.203125 -3.421875 0.203125 -3.265625 C 0.203125 -3.15625 0.296875 -3.15625 0.4375 -3.15625 L 1.15625 -3.15625 L 0.671875 -1.25 C 0.625 -1.046875 0.546875 -0.78125 0.546875 -0.671875 C 0.546875 -0.1875 0.9375 0.078125 1.359375 0.078125 C 2.203125 0.078125 2.6875 -1.03125 2.6875 -1.140625 C 2.6875 -1.21875 2.625 -1.234375 2.578125 -1.234375 C 2.484375 -1.234375 2.484375 -1.203125 2.421875 -1.078125 C 2.265625 -0.703125 1.875 -0.140625 1.390625 -0.140625 C 1.21875 -0.140625 1.125 -0.25 1.125 -0.515625 C 1.125 -0.671875 1.15625 -0.75 1.171875 -0.859375 Z M 1.75 -3.15625 "/>
</g>
<g id="glyph-2-2">
<path d="M 3.078125 -4.859375 C 3.140625 -5.125 3.15625 -5.15625 3.484375 -5.15625 L 4.125 -5.15625 C 4.765625 -5.15625 5.375 -4.984375 5.375 -4.34375 C 5.375 -4 5.203125 -3.4375 4.828125 -3.171875 C 4.453125 -2.90625 4 -2.8125 3.546875 -2.8125 L 2.5625 -2.8125 Z M 4.421875 -2.6875 C 5.390625 -2.9375 6.15625 -3.53125 6.15625 -4.203125 C 6.15625 -4.890625 5.375 -5.40625 4.28125 -5.40625 L 1.9375 -5.40625 C 1.796875 -5.40625 1.6875 -5.40625 1.6875 -5.265625 C 1.6875 -5.15625 1.796875 -5.15625 1.921875 -5.15625 C 2.1875 -5.15625 2.421875 -5.15625 2.421875 -5.015625 C 2.421875 -4.984375 2.40625 -4.984375 2.390625 -4.875 L 1.328125 -0.625 C 1.25 -0.328125 1.234375 -0.265625 0.65625 -0.265625 C 0.5 -0.265625 0.40625 -0.265625 0.40625 -0.109375 C 0.40625 -0.078125 0.421875 0 0.53125 0 C 0.6875 0 0.859375 -0.015625 1.015625 -0.03125 L 1.515625 -0.03125 C 2.25 -0.03125 2.484375 0 2.53125 0 C 2.578125 0 2.6875 0 2.6875 -0.15625 C 2.6875 -0.265625 2.578125 -0.265625 2.453125 -0.265625 C 2.421875 -0.265625 2.28125 -0.265625 2.140625 -0.28125 C 1.984375 -0.296875 1.96875 -0.3125 1.96875 -0.390625 C 1.96875 -0.421875 1.984375 -0.46875 1.984375 -0.515625 L 2.5 -2.59375 L 3.53125 -2.59375 C 4.25 -2.59375 4.46875 -2.21875 4.46875 -1.890625 C 4.46875 -1.78125 4.40625 -1.5625 4.375 -1.390625 C 4.3125 -1.171875 4.234375 -0.84375 4.234375 -0.703125 C 4.234375 -0.09375 4.75 0.171875 5.34375 0.171875 C 6.03125 0.171875 6.359375 -0.609375 6.359375 -0.765625 C 6.359375 -0.796875 6.328125 -0.875 6.234375 -0.875 C 6.140625 -0.875 6.109375 -0.796875 6.109375 -0.765625 C 5.9375 -0.21875 5.59375 -0.0625 5.359375 -0.0625 C 5.0625 -0.0625 5.03125 -0.28125 5.03125 -0.53125 C 5.03125 -0.796875 5.078125 -1.15625 5.125 -1.40625 C 5.15625 -1.640625 5.15625 -1.6875 5.15625 -1.78125 C 5.15625 -2.25 4.84375 -2.53125 4.421875 -2.6875 Z M 4.421875 -2.6875 "/>
</g>
<g id="glyph-3-0">
<path d="M 8.015625 -3.84375 C 8.1875 -3.84375 8.390625 -3.84375 8.390625 -4.0625 C 8.390625 -4.28125 8.1875 -4.28125 8.015625 -4.28125 L 1.015625 -4.28125 C 0.859375 -4.28125 0.640625 -4.28125 0.640625 -4.078125 C 0.640625 -3.84375 0.84375 -3.84375 1.015625 -3.84375 Z M 8.015625 -1.640625 C 8.1875 -1.640625 8.390625 -1.640625 8.390625 -1.859375 C 8.390625 -2.078125 8.1875 -2.078125 8.015625 -2.078125 L 1.015625 -2.078125 C 0.859375 -2.078125 0.640625 -2.078125 0.640625 -1.859375 C 0.640625 -1.640625 0.84375 -1.640625 1.015625 -1.640625 Z M 8.015625 -1.640625 "/>
</g>
<g id="glyph-4-0">
<path d="M 2.578125 -3.609375 C 2.625 -3.8125 2.640625 -3.8125 2.890625 -3.8125 L 3.46875 -3.8125 C 4.0625 -3.8125 4.5 -3.671875 4.5 -3.203125 C 4.5 -3 4.40625 -2.5625 4 -2.328125 C 3.765625 -2.203125 3.4375 -2.125 3.046875 -2.125 L 2.203125 -2.125 Z M 3.796875 -2.015625 C 4.375 -2.15625 5.140625 -2.546875 5.140625 -3.140625 C 5.140625 -3.625 4.515625 -4.0625 3.59375 -4.0625 L 1.671875 -4.0625 C 1.5625 -4.0625 1.46875 -4.0625 1.46875 -3.90625 C 1.46875 -3.8125 1.5625 -3.8125 1.65625 -3.8125 C 1.765625 -3.8125 1.921875 -3.8125 2.046875 -3.78125 C 2.046875 -3.71875 2.046875 -3.6875 2.015625 -3.59375 L 1.234375 -0.5 C 1.1875 -0.28125 1.171875 -0.234375 0.734375 -0.234375 C 0.59375 -0.234375 0.59375 -0.234375 0.5625 -0.21875 C 0.53125 -0.203125 0.515625 -0.125 0.515625 -0.078125 C 0.515625 -0.0625 0.515625 0 0.609375 0 C 0.796875 0 1.21875 -0.03125 1.40625 -0.03125 C 1.765625 -0.03125 1.375 -0.03125 1.8125 -0.015625 C 1.9375 -0.015625 2.078125 0 2.203125 0 C 2.25 0 2.28125 0 2.3125 -0.046875 C 2.328125 -0.0625 2.34375 -0.125 2.34375 -0.15625 C 2.328125 -0.234375 2.28125 -0.234375 2.140625 -0.234375 C 2.0625 -0.234375 1.984375 -0.25 1.90625 -0.25 C 1.8125 -0.265625 1.765625 -0.265625 1.765625 -0.328125 C 1.765625 -0.34375 1.765625 -0.375 1.78125 -0.4375 L 2.15625 -1.9375 L 3.015625 -1.9375 C 3.53125 -1.9375 3.796875 -1.6875 3.796875 -1.40625 C 3.796875 -1.34375 3.75 -1.140625 3.71875 -1 C 3.640625 -0.71875 3.625 -0.640625 3.625 -0.53125 C 3.625 -0.09375 4.03125 0.125 4.546875 0.125 C 5.09375 0.125 5.359375 -0.4375 5.359375 -0.578125 C 5.359375 -0.609375 5.328125 -0.671875 5.25 -0.671875 C 5.171875 -0.671875 5.15625 -0.625 5.140625 -0.578125 C 5 -0.171875 4.71875 -0.078125 4.578125 -0.078125 C 4.40625 -0.078125 4.28125 -0.125 4.28125 -0.484375 C 4.28125 -0.625 4.328125 -0.9375 4.34375 -1.09375 C 4.34375 -1.15625 4.359375 -1.28125 4.359375 -1.328125 C 4.359375 -1.71875 4.0625 -1.9375 3.796875 -2.015625 Z M 3.796875 -2.015625 "/>
</g>
<g id="glyph-4-1">
<path d="M 0.578125 0.71875 C 0.53125 0.875 0.53125 0.921875 0.265625 0.921875 C 0.203125 0.921875 0.15625 0.921875 0.140625 0.953125 C 0.125 0.96875 0.09375 1.046875 0.09375 1.0625 C 0.109375 1.09375 0.109375 1.15625 0.203125 1.15625 C 0.359375 1.15625 0.5625 1.125 0.734375 1.125 C 0.84375 1.125 0.953125 1.140625 1.0625 1.140625 C 1.15625 1.140625 1.28125 1.15625 1.375 1.15625 C 1.40625 1.15625 1.453125 1.15625 1.484375 1.109375 C 1.484375 1.09375 1.515625 1.015625 1.515625 1 C 1.5 0.921875 1.4375 0.921875 1.34375 0.921875 C 1.1875 0.921875 1.046875 0.921875 1.046875 0.84375 C 1.046875 0.8125 1.078125 0.65625 1.109375 0.5625 L 1.3125 -0.296875 C 1.453125 -0.078125 1.6875 0.0625 1.96875 0.0625 C 2.75 0.0625 3.5625 -0.765625 3.5625 -1.609375 C 3.5625 -2.234375 3.125 -2.625 2.59375 -2.625 C 2.125 -2.625 1.75 -2.234375 1.71875 -2.203125 C 1.609375 -2.546875 1.234375 -2.625 1.0625 -2.625 C 0.796875 -2.625 0.65625 -2.421875 0.578125 -2.296875 C 0.4375 -2.046875 0.359375 -1.734375 0.359375 -1.703125 C 0.359375 -1.640625 0.421875 -1.625 0.46875 -1.625 C 0.5625 -1.625 0.5625 -1.65625 0.59375 -1.75 C 0.71875 -2.25 0.859375 -2.421875 1.046875 -2.421875 C 1.265625 -2.421875 1.265625 -2.171875 1.265625 -2.125 C 1.265625 -2.015625 1.265625 -2 1.25 -1.953125 Z M 1.6875 -1.78125 C 1.71875 -1.890625 1.71875 -1.90625 1.828125 -2.015625 C 2.015625 -2.234375 2.296875 -2.421875 2.578125 -2.421875 C 2.875 -2.421875 3.046875 -2.203125 3.046875 -1.84375 C 3.046875 -1.640625 2.9375 -0.984375 2.703125 -0.625 C 2.5 -0.3125 2.21875 -0.140625 1.96875 -0.140625 C 1.53125 -0.140625 1.40625 -0.59375 1.40625 -0.640625 C 1.40625 -0.671875 1.421875 -0.71875 1.421875 -0.734375 Z M 1.6875 -1.78125 "/>
</g>
<g id="glyph-4-2">
<path d="M 2.5625 -2.328125 L 3.171875 -2.328125 C 3.28125 -2.328125 3.359375 -2.328125 3.359375 -2.46875 C 3.359375 -2.5625 3.296875 -2.5625 3.1875 -2.5625 L 2.59375 -2.5625 C 2.78125 -3.53125 2.78125 -3.546875 2.796875 -3.65625 C 2.828125 -3.78125 2.84375 -3.828125 2.9375 -3.90625 C 3 -3.953125 3.0625 -3.984375 3.140625 -3.984375 C 3.234375 -3.984375 3.34375 -3.96875 3.421875 -3.9375 C 3.296875 -3.890625 3.1875 -3.75 3.1875 -3.609375 C 3.1875 -3.484375 3.296875 -3.390625 3.4375 -3.390625 C 3.59375 -3.390625 3.78125 -3.515625 3.78125 -3.75 C 3.78125 -4.078125 3.40625 -4.1875 3.140625 -4.1875 C 2.875 -4.1875 2.46875 -4.0625 2.296875 -3.46875 C 2.25 -3.3125 2.234375 -3.1875 2.1875 -2.984375 C 2.15625 -2.8125 2.15625 -2.734375 2.109375 -2.5625 L 1.625 -2.5625 C 1.515625 -2.5625 1.421875 -2.5625 1.421875 -2.40625 C 1.421875 -2.328125 1.5 -2.328125 1.609375 -2.328125 L 2.078125 -2.328125 C 1.84375 -0.984375 1.75 -0.53125 1.734375 -0.421875 C 1.546875 0.59375 1.515625 0.65625 1.46875 0.75 C 1.390625 0.890625 1.28125 1.015625 1.140625 1.015625 C 1.09375 1.015625 0.96875 1 0.875 0.96875 C 0.984375 0.921875 1.09375 0.78125 1.09375 0.640625 C 1.09375 0.515625 1 0.421875 0.859375 0.421875 C 0.703125 0.421875 0.515625 0.546875 0.515625 0.78125 C 0.515625 1.109375 0.890625 1.21875 1.125 1.21875 C 1.453125 1.21875 1.6875 0.9375 1.796875 0.8125 C 2.046875 0.46875 2.171875 -0.25 2.1875 -0.296875 Z M 2.5625 -2.328125 "/>
</g>
<g id="glyph-5-0">
<path d="M 2.359375 -1.90625 L 2.90625 -1.90625 C 3.015625 -1.90625 3.015625 -1.921875 3.046875 -1.9375 C 3.078125 -1.953125 3.078125 -2.015625 3.078125 -2.046875 C 3.078125 -2.140625 3.015625 -2.140625 2.921875 -2.140625 L 2.390625 -2.140625 C 2.453125 -2.5 2.5625 -3.125 2.625 -3.203125 C 2.6875 -3.28125 2.78125 -3.328125 2.859375 -3.328125 C 2.890625 -3.328125 3 -3.328125 3.09375 -3.265625 C 2.90625 -3.1875 2.90625 -3 2.90625 -2.984375 C 2.90625 -2.859375 3 -2.78125 3.125 -2.78125 C 3.25 -2.78125 3.421875 -2.890625 3.421875 -3.109375 C 3.421875 -3.390625 3.09375 -3.484375 2.859375 -3.484375 C 2.234375 -3.484375 2.109375 -2.890625 2.0625 -2.671875 C 2.015625 -2.46875 2.046875 -2.59375 1.96875 -2.140625 L 1.515625 -2.140625 C 1.421875 -2.140625 1.34375 -2.140625 1.34375 -2 C 1.34375 -1.90625 1.421875 -1.90625 1.5 -1.90625 L 1.9375 -1.90625 C 1.84375 -1.421875 1.625 -0.046875 1.484375 0.46875 C 1.46875 0.59375 1.34375 0.84375 1.15625 0.84375 C 1.125 0.84375 1.015625 0.84375 0.921875 0.796875 C 1.0625 0.734375 1.125 0.609375 1.125 0.515625 C 1.125 0.390625 1.03125 0.3125 0.90625 0.3125 C 0.765625 0.3125 0.59375 0.421875 0.59375 0.640625 C 0.59375 0.9375 0.953125 1.015625 1.140625 1.015625 C 1.4375 1.015625 1.65625 0.78125 1.765625 0.640625 C 1.96875 0.359375 2.078125 -0.296875 2.078125 -0.3125 Z M 2.359375 -1.90625 "/>
</g>
<g id="glyph-6-0">
<path d="M 3.1875 -1.109375 L 2.96875 -1.109375 C 2.96875 -1.03125 2.90625 -0.640625 2.8125 -0.5625 C 2.765625 -0.53125 2.296875 -0.53125 2.203125 -0.53125 L 1.09375 -0.53125 L 1.859375 -1.15625 C 2.0625 -1.3125 2.59375 -1.6875 2.765625 -1.875 C 2.953125 -2.046875 3.1875 -2.34375 3.1875 -2.765625 C 3.1875 -3.515625 2.53125 -3.953125 1.734375 -3.953125 C 0.96875 -3.953125 0.421875 -3.4375 0.421875 -2.890625 C 0.421875 -2.578125 0.6875 -2.546875 0.75 -2.546875 C 0.890625 -2.546875 1.0625 -2.65625 1.0625 -2.875 C 1.0625 -3 0.984375 -3.1875 0.734375 -3.1875 C 0.859375 -3.484375 1.234375 -3.71875 1.640625 -3.71875 C 2.265625 -3.71875 2.59375 -3.25 2.59375 -2.765625 C 2.59375 -2.34375 2.3125 -1.921875 1.90625 -1.53125 L 0.5 -0.25 C 0.4375 -0.1875 0.421875 -0.1875 0.421875 0 L 3.015625 0 Z M 3.1875 -1.109375 "/>
</g>
<g id="glyph-7-0">
<path d="M 2.0625 -3.515625 L 3.125 -3.515625 L 3.125 -3.953125 L 2.015625 -3.953125 L 2.015625 -4.84375 C 2.015625 -5.8125 2.703125 -5.875 2.9375 -5.875 C 2.953125 -5.875 3.046875 -5.875 3.046875 -5.859375 C 3.046875 -5.84375 3.046875 -5.84375 3.03125 -5.828125 C 2.9375 -5.703125 2.890625 -5.578125 2.890625 -5.4375 C 2.890625 -5.0625 3.1875 -4.875 3.453125 -4.875 C 3.734375 -4.875 4.015625 -5.078125 4.015625 -5.4375 C 4.015625 -5.84375 3.671875 -6.234375 2.96875 -6.234375 C 2.046875 -6.234375 1.078125 -5.828125 1.078125 -4.84375 L 1.078125 -3.953125 L 0.390625 -3.953125 L 0.390625 -3.515625 L 1.078125 -3.515625 L 1.078125 -0.4375 L 0.46875 -0.4375 L 0.46875 0 C 1.125 -0.03125 1.1875 -0.03125 1.609375 -0.03125 C 1.828125 -0.03125 2.34375 -0.03125 2.828125 0 L 2.828125 -0.4375 L 2.0625 -0.4375 Z M 2.0625 -3.515625 "/>
</g>
<g id="glyph-7-1">
<path d="M 3.359375 -3.9375 L 3.359375 -3.5 C 3.890625 -3.5 3.96875 -3.5 3.96875 -3.15625 L 3.96875 -1.453125 C 3.96875 -0.75 3.5 -0.296875 2.8125 -0.296875 C 2.125 -0.296875 2.09375 -0.5 2.09375 -0.96875 L 2.09375 -4.015625 L 0.453125 -3.9375 L 0.453125 -3.5 C 0.984375 -3.5 1.046875 -3.5 1.046875 -3.15625 L 1.046875 -1.09375 C 1.046875 -0.125 1.8125 0.046875 2.6875 0.046875 C 2.953125 0.046875 3.5625 0.046875 4.015625 -0.609375 L 4.015625 0.046875 L 5.609375 0 L 5.609375 -0.4375 C 5.078125 -0.4375 5 -0.4375 5 -0.78125 L 5 -4.015625 Z M 3.359375 -3.9375 "/>
</g>
<g id="glyph-7-2">
<path d="M 2.0625 -6.1875 L 0.46875 -6.109375 L 0.46875 -5.671875 C 1 -5.671875 1.0625 -5.671875 1.0625 -5.328125 L 1.0625 -0.4375 L 0.46875 -0.4375 L 0.46875 0 C 1.0625 -0.03125 1.171875 -0.03125 1.5625 -0.03125 C 1.953125 -0.03125 2.1875 -0.015625 2.65625 0 L 2.65625 -0.4375 L 2.0625 -0.4375 Z M 2.0625 -6.1875 "/>
</g>
<g id="glyph-7-3">
<path d="M 2.625 1.296875 L 2.015625 1.296875 L 2.015625 -0.34375 C 2.53125 0.046875 3.03125 0.046875 3.203125 0.046875 C 4.59375 0.046875 5.5 -0.796875 5.5 -1.984375 C 5.5 -3.15625 4.6875 -4.015625 3.34375 -4.015625 C 2.625 -4.015625 2.125 -3.703125 1.953125 -3.578125 L 1.953125 -4.015625 L 0.359375 -3.9375 L 0.359375 -3.5 C 0.546875 -3.5 0.6875 -3.5 0.796875 -3.46875 C 0.96875 -3.453125 0.96875 -3.34375 0.96875 -3.15625 L 0.96875 1.296875 L 0.359375 1.296875 L 0.359375 1.734375 C 1.03125 1.703125 1.125 1.703125 1.484375 1.703125 C 1.859375 1.703125 1.9375 1.703125 2.625 1.734375 Z M 2.015625 -3.078125 C 2.171875 -3.265625 2.59375 -3.625 3.203125 -3.625 C 3.828125 -3.625 4.3125 -3.078125 4.3125 -1.984375 C 4.3125 -0.75 3.671875 -0.296875 3.09375 -0.296875 C 2.640625 -0.296875 2.25 -0.5625 2.015625 -0.921875 Z M 2.015625 -3.078125 "/>
</g>
<g id="glyph-7-4">
<path d="M 4.3125 -2.65625 C 4.3125 -3.4375 3.671875 -4.03125 2.296875 -4.03125 C 1.796875 -4.03125 0.65625 -4.015625 0.65625 -3.203125 C 0.65625 -2.796875 0.953125 -2.609375 1.234375 -2.609375 C 1.53125 -2.609375 1.8125 -2.828125 1.8125 -3.1875 C 1.8125 -3.453125 1.65625 -3.59375 1.625 -3.625 C 1.71875 -3.640625 1.9375 -3.671875 2.265625 -3.671875 C 2.90625 -3.671875 3.265625 -3.359375 3.265625 -2.65625 L 3.265625 -2.375 C 1.796875 -2.375 0.296875 -1.984375 0.296875 -1 C 0.296875 -0.109375 1.40625 0.046875 2.046875 0.046875 C 2.71875 0.046875 3.1875 -0.234375 3.421875 -0.65625 C 3.421875 -0.421875 3.421875 0 4.375 0 L 4.8125 0 C 4.984375 0 5.109375 0 5.109375 -0.21875 C 5.109375 -0.4375 4.96875 -0.4375 4.875 -0.4375 C 4.3125 -0.453125 4.3125 -0.53125 4.3125 -0.75 Z M 3.265625 -1.234375 C 3.265625 -0.296875 2.234375 -0.296875 2.203125 -0.296875 C 1.75 -0.296875 1.375 -0.59375 1.375 -1 C 1.375 -1.296875 1.53125 -1.984375 3.265625 -2.0625 Z M 3.265625 -1.234375 "/>
</g>
<g id="glyph-7-5">
<path d="M 1.953125 -1.9375 C 1.953125 -2.59375 2.203125 -3.625 3.0625 -3.65625 C 2.96875 -3.546875 2.921875 -3.40625 2.921875 -3.265625 C 2.921875 -2.875 3.234375 -2.6875 3.484375 -2.6875 C 3.765625 -2.6875 4.046875 -2.890625 4.046875 -3.265625 C 4.046875 -3.71875 3.59375 -4.015625 3.0625 -4.015625 C 2.4375 -4.015625 2.0625 -3.546875 1.859375 -3.03125 L 1.859375 -4.015625 L 0.359375 -3.9375 L 0.359375 -3.5 C 0.90625 -3.5 0.96875 -3.5 0.96875 -3.15625 L 0.96875 -0.4375 L 0.359375 -0.4375 L 0.359375 0 C 1.03125 -0.03125 1.078125 -0.03125 1.5 -0.03125 C 1.734375 -0.03125 2.25 -0.03125 2.71875 0 L 2.71875 -0.4375 L 1.953125 -0.4375 Z M 1.953125 -1.9375 "/>
</g>
<g id="glyph-7-6">
<path d="M 1.984375 -3.515625 L 3.328125 -3.515625 L 3.328125 -3.953125 L 1.984375 -3.953125 L 1.984375 -5.65625 L 1.53125 -5.65625 C 1.515625 -4.8125 1.109375 -3.90625 0.203125 -3.875 L 0.203125 -3.515625 L 0.9375 -3.515625 L 0.9375 -1.09375 C 0.9375 -0.078125 1.828125 0.046875 2.375 0.046875 C 3.078125 0.046875 3.5 -0.453125 3.5 -1.09375 L 3.5 -1.5625 L 3.046875 -1.5625 L 3.046875 -1.125 C 3.046875 -0.484375 2.71875 -0.328125 2.5 -0.328125 C 1.984375 -0.328125 1.984375 -0.859375 1.984375 -1.078125 Z M 1.984375 -3.515625 "/>
</g>
<g id="glyph-7-7">
<path d="M 2.140625 -5.484375 C 2.140625 -5.953125 1.765625 -6.1875 1.4375 -6.1875 C 1.03125 -6.1875 0.734375 -5.84375 0.734375 -5.5 C 0.734375 -5.125 1.046875 -4.796875 1.4375 -4.796875 C 1.78125 -4.796875 2.140625 -5.0625 2.140625 -5.484375 Z M 0.484375 -3.9375 L 0.484375 -3.5 C 1 -3.5 1.0625 -3.5 1.0625 -3.15625 L 1.0625 -0.4375 L 0.46875 -0.4375 L 0.46875 0 C 1.0625 -0.015625 1.171875 -0.03125 1.546875 -0.03125 C 1.984375 -0.03125 2.109375 -0.015625 2.59375 0 L 2.59375 -0.4375 L 2.0625 -0.4375 L 2.0625 -4.015625 Z M 0.484375 -3.9375 "/>
</g>
<g id="glyph-8-0">
<path d="M 1.578125 -2.046875 C 1.578125 -2.40625 1.6875 -3.71875 2.703125 -3.71875 L 2.703125 -3.703125 C 2.6875 -3.703125 2.53125 -3.59375 2.53125 -3.375 C 2.53125 -3.140625 2.71875 -2.984375 2.9375 -2.984375 C 3.125 -2.984375 3.328125 -3.125 3.328125 -3.390625 C 3.328125 -3.671875 3.0625 -3.9375 2.65625 -3.9375 C 2.125 -3.9375 1.75 -3.5625 1.546875 -3.015625 L 1.53125 -3.015625 L 1.53125 -3.9375 L 0.265625 -3.84375 L 0.265625 -3.5625 C 0.875 -3.5625 0.953125 -3.5 0.953125 -3.0625 L 0.953125 -0.6875 C 0.953125 -0.28125 0.859375 -0.28125 0.265625 -0.28125 L 0.265625 0 C 0.734375 -0.015625 0.859375 -0.03125 1.3125 -0.03125 C 1.671875 -0.03125 1.875 -0.015625 2.4375 0 L 2.4375 -0.28125 L 2.265625 -0.28125 C 1.609375 -0.28125 1.578125 -0.375 1.578125 -0.703125 Z M 1.578125 -2.046875 "/>
</g>
<g id="glyph-8-1">
<path d="M 4.3125 -1.890625 C 4.3125 -3.0625 3.390625 -3.984375 2.28125 -3.984375 C 1.15625 -3.984375 0.265625 -3.03125 0.265625 -1.890625 C 0.265625 -0.78125 1.1875 0.09375 2.28125 0.09375 C 3.40625 0.09375 4.3125 -0.796875 4.3125 -1.890625 Z M 2.28125 -0.15625 C 1.84375 -0.15625 1.46875 -0.375 1.265625 -0.71875 C 1.03125 -1.09375 1.03125 -1.5625 1.03125 -1.984375 C 1.03125 -2.3125 1.03125 -2.8125 1.25 -3.171875 C 1.515625 -3.640625 1.953125 -3.765625 2.28125 -3.765625 C 2.78125 -3.765625 3.15625 -3.484375 3.328125 -3.171875 C 3.53125 -2.8125 3.546875 -2.34375 3.546875 -1.984375 C 3.546875 -1.640625 3.546875 -1.125 3.328125 -0.734375 C 3.078125 -0.328125 2.65625 -0.15625 2.28125 -0.15625 Z M 2.28125 -0.15625 "/>
</g>
<g id="glyph-8-2">
<path d="M 3.53125 -1.484375 C 3.53125 -0.6875 3.078125 -0.125 2.4375 -0.125 C 1.703125 -0.125 1.65625 -0.5 1.65625 -0.984375 L 1.65625 -3.9375 L 0.3125 -3.84375 L 0.3125 -3.5625 C 1 -3.5625 1 -3.53125 1 -2.75 L 1 -1.40625 C 1 -0.828125 1 -0.453125 1.40625 -0.140625 C 1.671875 0.03125 2.03125 0.09375 2.390625 0.09375 C 2.84375 0.09375 3.28125 -0.109375 3.546875 -0.640625 L 3.546875 0.09375 L 4.875 0 L 4.875 -0.28125 C 4.265625 -0.28125 4.1875 -0.34375 4.1875 -0.78125 L 4.1875 -3.9375 L 2.84375 -3.84375 L 2.84375 -3.5625 C 3.453125 -3.5625 3.53125 -3.5 3.53125 -3.0625 Z M 3.53125 -1.484375 "/>
</g>
<g id="glyph-8-3">
<path d="M 1.65625 -2.3125 C 1.65625 -3.25 2.328125 -3.71875 2.890625 -3.71875 C 3.40625 -3.71875 3.53125 -3.28125 3.53125 -2.75 L 3.53125 -0.6875 C 3.53125 -0.28125 3.421875 -0.28125 2.84375 -0.28125 L 2.84375 0 C 3.265625 -0.015625 3.421875 -0.03125 3.859375 -0.03125 C 4.28125 -0.03125 4.40625 -0.015625 4.875 0 L 4.875 -0.28125 C 4.421875 -0.28125 4.1875 -0.28125 4.1875 -0.546875 L 4.1875 -2.265625 C 4.1875 -3 4.1875 -3.265625 3.9375 -3.578125 C 3.734375 -3.828125 3.390625 -3.9375 2.953125 -3.9375 C 2.125 -3.9375 1.734375 -3.328125 1.609375 -3.078125 L 1.609375 -3.9375 L 0.3125 -3.84375 L 0.3125 -3.5625 C 0.921875 -3.5625 1 -3.5 1 -3.0625 L 1 -0.6875 C 1 -0.28125 0.90625 -0.28125 0.3125 -0.28125 L 0.3125 0 C 0.734375 -0.015625 0.90625 -0.03125 1.328125 -0.03125 C 1.75 -0.03125 1.875 -0.015625 2.34375 0 L 2.34375 -0.28125 C 1.75 -0.28125 1.65625 -0.28125 1.65625 -0.6875 Z M 1.65625 -2.3125 "/>
</g>
<g id="glyph-8-4">
<path d="M 3.46875 -1.0625 C 3.46875 -0.90625 3.46875 -0.875 3.328125 -0.6875 C 3.0625 -0.296875 2.640625 -0.125 2.28125 -0.125 C 1.90625 -0.125 1.546875 -0.34375 1.3125 -0.71875 C 1.09375 -1.09375 1.0625 -1.625 1.0625 -1.90625 C 1.0625 -2.328125 1.125 -2.796875 1.359375 -3.15625 C 1.546875 -3.4375 1.921875 -3.71875 2.390625 -3.71875 C 2.765625 -3.71875 3.125 -3.53125 3.359375 -3.1875 C 3.46875 -3.046875 3.46875 -3.03125 3.46875 -2.875 Z M 3.484375 -3.40625 C 3.453125 -3.46875 3.046875 -3.9375 2.34375 -3.9375 C 1.25 -3.9375 0.296875 -3.0625 0.296875 -1.921875 C 0.296875 -0.796875 1.1875 0.09375 2.25 0.09375 C 2.90625 0.09375 3.296875 -0.28125 3.46875 -0.46875 L 3.46875 0.09375 L 4.8125 0 L 4.8125 -0.28125 C 4.203125 -0.28125 4.125 -0.34375 4.125 -0.78125 L 4.125 -6.1875 L 2.8125 -6.078125 L 2.8125 -5.8125 C 3.40625 -5.8125 3.484375 -5.75 3.484375 -5.3125 Z M 3.484375 -3.40625 "/>
</g>
<g id="glyph-8-5">
<path d="M 3.0625 -3.765625 C 3.0625 -3.90625 3.0625 -3.984375 2.953125 -3.984375 C 2.90625 -3.984375 2.890625 -3.984375 2.78125 -3.890625 C 2.765625 -3.859375 2.6875 -3.78125 2.625 -3.734375 C 2.34375 -3.9375 2.078125 -3.984375 1.765625 -3.984375 C 0.59375 -3.984375 0.296875 -3.34375 0.296875 -2.890625 C 0.296875 -2.59375 0.421875 -2.375 0.625 -2.171875 C 0.9375 -1.890625 1.28125 -1.828125 1.734375 -1.75 C 2.1875 -1.671875 2.328125 -1.640625 2.53125 -1.484375 C 2.625 -1.421875 2.84375 -1.25 2.84375 -0.90625 C 2.84375 -0.125 1.9375 -0.125 1.8125 -0.125 C 0.90625 -0.125 0.671875 -0.875 0.5625 -1.359375 C 0.546875 -1.453125 0.53125 -1.5 0.421875 -1.5 C 0.296875 -1.5 0.296875 -1.4375 0.296875 -1.28125 L 0.296875 -0.140625 C 0.296875 0.015625 0.296875 0.09375 0.40625 0.09375 C 0.46875 0.09375 0.46875 0.09375 0.625 -0.078125 C 0.671875 -0.140625 0.765625 -0.25 0.8125 -0.296875 C 1.1875 0.078125 1.59375 0.09375 1.8125 0.09375 C 2.90625 0.09375 3.296875 -0.546875 3.296875 -1.140625 C 3.296875 -1.546875 3.125 -1.78125 2.921875 -1.984375 C 2.625 -2.28125 2.296875 -2.34375 1.640625 -2.46875 C 1.40625 -2.515625 0.75 -2.625 0.75 -3.140625 C 0.75 -3.421875 0.96875 -3.796875 1.765625 -3.796875 C 2.734375 -3.796875 2.796875 -3.0625 2.8125 -2.828125 C 2.828125 -2.71875 2.828125 -2.671875 2.9375 -2.671875 C 3.0625 -2.671875 3.0625 -2.734375 3.0625 -2.90625 Z M 3.0625 -3.765625 "/>
</g>
<g id="glyph-9-0">
<path d="M 5.25 -5.375 C 5.25 -5.390625 5.265625 -5.453125 5.265625 -5.484375 C 5.265625 -5.515625 5.234375 -5.578125 5.15625 -5.578125 C 5.109375 -5.578125 5.09375 -5.5625 5.015625 -5.484375 L 4.671875 -5.03125 C 4.34375 -5.5 3.875 -5.578125 3.546875 -5.578125 C 2.53125 -5.578125 1.625 -4.640625 1.625 -3.734375 C 1.625 -2.84375 2.359375 -2.640625 2.640625 -2.578125 C 2.890625 -2.5 3.140625 -2.4375 3.390625 -2.375 C 3.78125 -2.265625 4 -2.015625 4 -1.5625 C 4 -0.84375 3.328125 -0.09375 2.578125 -0.09375 C 1.921875 -0.09375 1.3125 -0.390625 1.3125 -1.203125 C 1.3125 -1.3125 1.328125 -1.5 1.359375 -1.609375 C 1.359375 -1.625 1.375 -1.671875 1.375 -1.703125 C 1.375 -1.796875 1.265625 -1.796875 1.234375 -1.796875 C 1.109375 -1.796875 1.09375 -1.796875 1.046875 -1.640625 L 0.671875 -0.078125 C 0.640625 0.03125 0.640625 0.046875 0.640625 0.0625 C 0.640625 0.15625 0.703125 0.171875 0.75 0.171875 C 0.8125 0.171875 0.828125 0.140625 0.875 0.078125 L 1.25 -0.375 C 1.578125 0.046875 2.0625 0.171875 2.5625 0.171875 C 3.609375 0.171875 4.515625 -0.859375 4.515625 -1.84375 C 4.515625 -2.171875 4.40625 -2.484375 4.203125 -2.703125 C 4 -2.9375 3.84375 -2.96875 3.140625 -3.15625 C 3.109375 -3.171875 2.734375 -3.265625 2.671875 -3.28125 C 2.34375 -3.375 2.140625 -3.671875 2.140625 -4.015625 C 2.140625 -4.65625 2.796875 -5.34375 3.53125 -5.34375 C 4.328125 -5.34375 4.5625 -4.796875 4.5625 -4.1875 C 4.5625 -3.921875 4.515625 -3.765625 4.515625 -3.71875 C 4.515625 -3.609375 4.625 -3.609375 4.671875 -3.609375 C 4.796875 -3.609375 4.796875 -3.625 4.84375 -3.765625 Z M 5.25 -5.375 "/>
</g>
<g id="glyph-9-1">
<path d="M 2.546875 -1.46875 C 2.703125 -1.46875 2.734375 -1.46875 2.765625 -1.578125 C 2.78125 -1.625 2.84375 -1.796875 2.84375 -1.84375 C 2.84375 -1.953125 2.734375 -1.953125 2.609375 -1.953125 L 0.984375 -1.953125 C 0.828125 -1.953125 0.78125 -1.953125 0.765625 -1.84375 C 0.75 -1.796875 0.703125 -1.625 0.703125 -1.578125 C 0.703125 -1.46875 0.78125 -1.46875 0.90625 -1.46875 Z M 2.546875 -1.46875 "/>
</g>
<g id="glyph-9-2">
<path d="M 2.46875 -5.265625 C 2.46875 -5.296875 2.484375 -5.359375 2.484375 -5.390625 C 2.484375 -5.5 2.359375 -5.5 2.28125 -5.484375 L 1.453125 -5.421875 C 1.34375 -5.40625 1.25 -5.40625 1.25 -5.265625 C 1.25 -5.15625 1.34375 -5.15625 1.453125 -5.15625 C 1.84375 -5.15625 1.84375 -5.109375 1.84375 -5.03125 C 1.84375 -4.984375 1.8125 -4.90625 1.8125 -4.859375 L 1.03125 -1.765625 C 1.015625 -1.75 0.953125 -1.453125 0.953125 -1.171875 C 0.953125 -0.421875 1.359375 0.078125 1.953125 0.078125 C 2.875 0.078125 3.84375 -1.046875 3.84375 -2.21875 C 3.84375 -3.078125 3.328125 -3.5 2.796875 -3.5 C 2.4375 -3.5 2.140625 -3.28125 1.921875 -3.09375 Z M 1.96875 -0.140625 C 1.59375 -0.140625 1.4375 -0.53125 1.4375 -0.921875 C 1.4375 -1.234375 1.53125 -1.5625 1.734375 -2.34375 C 1.796875 -2.59375 1.953125 -2.78125 2.140625 -2.953125 C 2.234375 -3.03125 2.5 -3.265625 2.78125 -3.265625 C 3.03125 -3.265625 3.265625 -3.078125 3.265625 -2.546875 C 3.265625 -2.125 3.046875 -1.28125 2.890625 -0.9375 C 2.625 -0.421875 2.25 -0.140625 1.96875 -0.140625 Z M 1.96875 -0.140625 "/>
</g>
<g id="glyph-9-3">
<path d="M 4.28125 -2.15625 C 4.28125 -2.984375 3.71875 -3.5 3.015625 -3.5 C 1.984375 -3.5 0.90625 -2.421875 0.90625 -1.265625 C 0.90625 -0.390625 1.5 0.078125 2.171875 0.078125 C 3.21875 0.078125 4.28125 -1.015625 4.28125 -2.15625 Z M 2.171875 -0.140625 C 1.875 -0.140625 1.5 -0.34375 1.5 -0.984375 C 1.5 -1.34375 1.671875 -2.078125 1.921875 -2.515625 C 2.265625 -3.09375 2.734375 -3.265625 3 -3.265625 C 3.375 -3.265625 3.6875 -2.984375 3.6875 -2.4375 C 3.6875 -2.171875 3.5625 -1.40625 3.234375 -0.875 C 2.984375 -0.4375 2.5625 -0.140625 2.171875 -0.140625 Z M 2.171875 -0.140625 "/>
</g>
<g id="glyph-9-4">
<path d="M 1.953125 -1.078125 C 1.875 -0.8125 1.71875 -0.140625 1.21875 -0.140625 C 1.03125 -0.140625 0.90625 -0.21875 0.859375 -0.25 C 1.015625 -0.3125 1.140625 -0.453125 1.140625 -0.640625 C 1.140625 -0.859375 0.9375 -0.90625 0.859375 -0.90625 C 0.625 -0.90625 0.453125 -0.703125 0.453125 -0.46875 C 0.453125 -0.09375 0.859375 0.078125 1.203125 0.078125 C 1.5625 0.078125 1.828125 -0.140625 2.015625 -0.421875 C 2.140625 -0.125 2.453125 0.078125 2.828125 0.078125 C 3.65625 0.078125 4.125 -0.90625 4.125 -1.140625 C 4.125 -1.234375 4.015625 -1.234375 3.984375 -1.234375 C 3.875 -1.234375 3.84375 -1.21875 3.8125 -1.140625 C 3.5625 -0.3125 3.078125 -0.140625 2.84375 -0.140625 C 2.59375 -0.140625 2.4375 -0.3125 2.4375 -0.640625 C 2.4375 -0.8125 2.53125 -1.203125 2.59375 -1.46875 C 2.671875 -1.8125 2.765625 -2.15625 2.859375 -2.5 C 2.984375 -2.984375 3.25 -3.265625 3.546875 -3.265625 C 3.75 -3.265625 3.890625 -3.171875 3.90625 -3.15625 C 3.828125 -3.140625 3.625 -3.015625 3.625 -2.78125 C 3.625 -2.5625 3.796875 -2.515625 3.90625 -2.515625 C 4.0625 -2.515625 4.296875 -2.625 4.296875 -2.953125 C 4.296875 -3.375 3.8125 -3.5 3.5625 -3.5 C 3.234375 -3.5 2.96875 -3.3125 2.75 -3 C 2.65625 -3.1875 2.421875 -3.5 1.9375 -3.5 C 1.09375 -3.5 0.640625 -2.5 0.640625 -2.28125 C 0.640625 -2.171875 0.734375 -2.171875 0.78125 -2.171875 C 0.890625 -2.171875 0.90625 -2.203125 0.9375 -2.28125 C 1.1875 -3.0625 1.65625 -3.265625 1.921875 -3.265625 C 2.171875 -3.265625 2.328125 -3.0625 2.328125 -2.765625 C 2.328125 -2.609375 2.296875 -2.453125 2.203125 -2.109375 Z M 1.953125 -1.078125 "/>
</g>
<g id="glyph-9-5">
<path d="M 2.109375 -2.125 C 2.140625 -2.25 2.390625 -2.71875 2.640625 -2.953125 C 2.890625 -3.15625 3.140625 -3.265625 3.421875 -3.265625 C 3.71875 -3.265625 3.8125 -3.046875 3.8125 -2.75 C 3.8125 -2.296875 3.484375 -1.390625 3.328125 -0.984375 C 3.28125 -0.84375 3.234375 -0.71875 3.234375 -0.578125 C 3.234375 -0.21875 3.5 0.078125 3.890625 0.078125 C 4.65625 0.078125 4.984375 -1.015625 4.984375 -1.140625 C 4.984375 -1.234375 4.875 -1.234375 4.828125 -1.234375 C 4.703125 -1.234375 4.703125 -1.203125 4.65625 -1.0625 C 4.515625 -0.5625 4.25 -0.140625 3.90625 -0.140625 C 3.765625 -0.140625 3.734375 -0.25 3.734375 -0.390625 C 3.734375 -0.578125 3.796875 -0.75 3.859375 -0.90625 C 4.015625 -1.328125 4.34375 -2.171875 4.34375 -2.640625 C 4.34375 -3.3125 3.875 -3.5 3.4375 -3.5 C 2.765625 -3.5 2.390625 -3.046875 2.234375 -2.859375 C 2.1875 -3.21875 1.90625 -3.5 1.515625 -3.5 C 1.25 -3.5 1.046875 -3.34375 0.890625 -3.0625 C 0.75 -2.796875 0.640625 -2.328125 0.640625 -2.28125 C 0.640625 -2.171875 0.734375 -2.171875 0.78125 -2.171875 C 0.90625 -2.171875 0.921875 -2.203125 0.96875 -2.390625 C 1.078125 -2.859375 1.234375 -3.265625 1.5 -3.265625 C 1.71875 -3.265625 1.71875 -3 1.71875 -2.921875 C 1.71875 -2.8125 1.703125 -2.6875 1.671875 -2.578125 L 1.09375 -0.265625 C 1.078125 -0.1875 1.0625 -0.171875 1.0625 -0.140625 C 1.0625 -0.015625 1.171875 0.078125 1.3125 0.078125 C 1.5625 0.078125 1.609375 -0.109375 1.671875 -0.40625 C 1.734375 -0.609375 1.8125 -0.9375 1.859375 -1.09375 C 1.890625 -1.265625 1.890625 -1.28125 1.984375 -1.609375 Z M 2.109375 -2.125 "/>
</g>
<g id="glyph-9-6">
<path d="M 4.046875 -2.953125 C 4.0625 -3 4.078125 -3.078125 4.078125 -3.125 C 4.078125 -3.25 3.984375 -3.34375 3.84375 -3.34375 C 3.734375 -3.34375 3.5625 -3.265625 3.515625 -3.046875 C 3.34375 -3.328125 3.125 -3.5 2.78125 -3.5 C 1.859375 -3.5 0.890625 -2.328125 0.890625 -1.1875 C 0.890625 -0.421875 1.34375 0.078125 1.9375 0.078125 C 2.40625 0.078125 2.796875 -0.265625 2.96875 -0.453125 C 3.03125 -0.171875 3.296875 0.078125 3.671875 0.078125 C 3.96875 0.078125 4.15625 -0.09375 4.28125 -0.34375 C 4.453125 -0.65625 4.5625 -1.109375 4.5625 -1.140625 C 4.5625 -1.234375 4.4375 -1.234375 4.40625 -1.234375 C 4.265625 -1.234375 4.265625 -1.21875 4.21875 -1.015625 C 4.078125 -0.40625 3.90625 -0.140625 3.6875 -0.140625 C 3.46875 -0.140625 3.46875 -0.390625 3.46875 -0.484375 C 3.46875 -0.546875 3.46875 -0.625 3.5 -0.71875 Z M 3.015625 -1.046875 C 2.953125 -0.78125 2.4375 -0.140625 1.96875 -0.140625 C 1.59375 -0.140625 1.46875 -0.546875 1.46875 -0.859375 C 1.46875 -1.234375 1.703125 -2.171875 1.90625 -2.53125 C 2.21875 -3.109375 2.5625 -3.265625 2.78125 -3.265625 C 3.28125 -3.265625 3.375 -2.59375 3.375 -2.515625 L 3.34375 -2.40625 Z M 3.015625 -1.046875 "/>
</g>
<g id="glyph-9-7">
<path d="M 2.46875 -5.265625 C 2.46875 -5.296875 2.484375 -5.359375 2.484375 -5.390625 C 2.484375 -5.5 2.359375 -5.5 2.28125 -5.484375 L 1.453125 -5.421875 C 1.34375 -5.40625 1.25 -5.40625 1.25 -5.265625 C 1.25 -5.15625 1.34375 -5.15625 1.453125 -5.15625 C 1.84375 -5.15625 1.84375 -5.109375 1.84375 -5.03125 C 1.84375 -4.984375 1.8125 -4.90625 1.8125 -4.859375 L 0.828125 -0.9375 C 0.78125 -0.78125 0.78125 -0.734375 0.78125 -0.65625 C 0.78125 -0.171875 1.15625 0.078125 1.515625 0.078125 C 1.671875 0.078125 1.921875 0.03125 2.125 -0.359375 C 2.265625 -0.640625 2.375 -1.09375 2.375 -1.140625 C 2.375 -1.234375 2.265625 -1.234375 2.21875 -1.234375 C 2.09375 -1.234375 2.09375 -1.203125 2.0625 -1.078125 C 1.953125 -0.671875 1.8125 -0.140625 1.53125 -0.140625 C 1.3125 -0.140625 1.3125 -0.390625 1.3125 -0.484375 C 1.3125 -0.53125 1.3125 -0.625 1.328125 -0.71875 Z M 2.46875 -5.265625 "/>
</g>
<g id="glyph-9-8">
<path d="M 3.796875 -5.046875 C 3.8125 -5.109375 3.8125 -5.140625 3.8125 -5.15625 C 3.8125 -5.1875 3.796875 -5.265625 3.6875 -5.265625 C 3.625 -5.265625 3.609375 -5.25 3.546875 -5.15625 C 3.140625 -4.609375 2.671875 -4.296875 2.109375 -4.25 C 2.0625 -4.234375 1.96875 -4.234375 1.96875 -4.09375 C 1.96875 -4 2.0625 -3.984375 2.109375 -3.984375 C 2.390625 -3.984375 2.703125 -4.09375 3.046875 -4.3125 L 2.125 -0.640625 C 2.046875 -0.34375 2 -0.265625 1.328125 -0.265625 L 1.25 -0.265625 C 1.109375 -0.265625 1.015625 -0.265625 1.015625 -0.109375 C 1.015625 -0.109375 1.015625 0 1.15625 0 C 1.15625 0 1.625 -0.03125 1.671875 -0.03125 L 2.796875 -0.03125 C 2.984375 -0.015625 3.1875 0 3.375 0 C 3.4375 0 3.546875 0 3.546875 -0.15625 C 3.546875 -0.265625 3.453125 -0.265625 3.3125 -0.265625 L 3.234375 -0.265625 C 3.21875 -0.265625 2.984375 -0.265625 2.875 -0.28125 C 2.671875 -0.296875 2.640625 -0.3125 2.640625 -0.421875 C 2.640625 -0.46875 2.65625 -0.53125 2.671875 -0.59375 Z M 3.796875 -5.046875 "/>
</g>
<g id="glyph-9-9">
<path d="M 2.09375 -1.8125 C 2.40625 -1.8125 3.890625 -1.8125 3.890625 -2.796875 C 3.890625 -3.203125 3.546875 -3.5 3 -3.5 C 2.140625 -3.5 0.9375 -2.75 0.9375 -1.34375 C 0.9375 -0.625 1.359375 0.078125 2.1875 0.078125 C 3.328125 0.078125 3.984375 -0.6875 3.984375 -0.796875 C 3.984375 -0.859375 3.875 -0.953125 3.8125 -0.953125 C 3.765625 -0.953125 3.765625 -0.9375 3.6875 -0.859375 C 3.265625 -0.34375 2.640625 -0.140625 2.203125 -0.140625 C 1.65625 -0.140625 1.53125 -0.6875 1.53125 -1.046875 C 1.53125 -1.234375 1.578125 -1.5625 1.640625 -1.8125 Z M 1.703125 -2.03125 C 1.96875 -3.015625 2.65625 -3.265625 3 -3.265625 C 3.28125 -3.265625 3.546875 -3.125 3.546875 -2.796875 C 3.546875 -2.03125 2.328125 -2.03125 2.03125 -2.03125 Z M 1.703125 -2.03125 "/>
</g>
<g id="glyph-9-10">
<path d="M 2.125 -2.171875 C 2.125 -2.171875 2.546875 -3.265625 3.421875 -3.265625 C 3.71875 -3.265625 3.828125 -3.078125 3.828125 -2.75 C 3.828125 -2.6875 3.828125 -2.53125 3.765625 -2.296875 L 3.265625 -0.3125 C 3.265625 -0.265625 3.234375 -0.1875 3.234375 -0.140625 C 3.234375 -0.015625 3.34375 0.078125 3.484375 0.078125 C 3.734375 0.078125 3.78125 -0.109375 3.84375 -0.40625 C 3.90625 -0.609375 3.984375 -0.9375 4.03125 -1.09375 C 4.0625 -1.265625 4.0625 -1.28125 4.15625 -1.609375 L 4.28125 -2.125 C 4.296875 -2.1875 4.515625 -2.6875 4.859375 -3 C 5 -3.109375 5.265625 -3.265625 5.59375 -3.265625 C 5.921875 -3.265625 6 -3.015625 6 -2.75 C 6 -2.296875 5.671875 -1.390625 5.515625 -0.984375 C 5.453125 -0.84375 5.40625 -0.71875 5.40625 -0.578125 C 5.40625 -0.21875 5.671875 0.078125 6.078125 0.078125 C 6.828125 0.078125 7.15625 -1.015625 7.15625 -1.140625 C 7.15625 -1.234375 7.046875 -1.234375 7.015625 -1.234375 C 6.890625 -1.234375 6.875 -1.203125 6.84375 -1.0625 C 6.6875 -0.5625 6.4375 -0.140625 6.09375 -0.140625 C 5.9375 -0.140625 5.921875 -0.25 5.921875 -0.390625 C 5.921875 -0.578125 5.984375 -0.75 6.03125 -0.90625 C 6.1875 -1.328125 6.515625 -2.171875 6.515625 -2.640625 C 6.515625 -3.3125 6.046875 -3.5 5.609375 -3.5 C 5.0625 -3.5 4.65625 -3.1875 4.34375 -2.78125 C 4.28125 -3.34375 3.828125 -3.5 3.453125 -3.5 C 2.765625 -3.5 2.390625 -3.046875 2.234375 -2.859375 C 2.1875 -3.21875 1.90625 -3.5 1.515625 -3.5 C 1.25 -3.5 1.046875 -3.34375 0.890625 -3.0625 C 0.75 -2.796875 0.640625 -2.328125 0.640625 -2.28125 C 0.640625 -2.171875 0.734375 -2.171875 0.78125 -2.171875 C 0.90625 -2.171875 0.921875 -2.203125 0.96875 -2.390625 C 1.078125 -2.859375 1.234375 -3.265625 1.5 -3.265625 C 1.71875 -3.265625 1.71875 -3 1.71875 -2.921875 C 1.71875 -2.8125 1.703125 -2.6875 1.671875 -2.578125 L 1.09375 -0.265625 C 1.078125 -0.1875 1.0625 -0.171875 1.0625 -0.140625 C 1.0625 -0.015625 1.171875 0.078125 1.3125 0.078125 C 1.5625 0.078125 1.609375 -0.109375 1.671875 -0.40625 C 1.734375 -0.609375 1.8125 -0.9375 1.859375 -1.09375 Z M 2.125 -2.171875 "/>
</g>
<g id="glyph-9-11">
<path d="M 1.859375 -0.515625 C 1.859375 -0.765625 1.671875 -0.875 1.484375 -0.875 C 1.25 -0.875 0.953125 -0.65625 0.953125 -0.359375 C 0.953125 -0.125 1.140625 0 1.328125 0 C 1.578125 0 1.859375 -0.234375 1.859375 -0.515625 Z M 1.859375 -0.515625 "/>
</g>
<g id="glyph-10-0">
<path d="M 1.859375 -2.796875 C 1.90625 -2.875 1.921875 -2.9375 1.921875 -2.984375 C 1.921875 -3.171875 1.75 -3.3125 1.5625 -3.3125 C 1.3125 -3.3125 1.25 -3.109375 1.21875 -3.03125 L 0.390625 -0.484375 C 0.375 -0.453125 0.359375 -0.40625 0.359375 -0.375 C 0.359375 -0.28125 0.59375 -0.234375 0.609375 -0.234375 C 0.65625 -0.234375 0.6875 -0.28125 0.703125 -0.328125 Z M 1.859375 -2.796875 "/>
</g>
<g id="glyph-11-0">
<path d="M 3.453125 -1.796875 L 5.78125 -1.796875 C 5.890625 -1.796875 6.0625 -1.796875 6.0625 -1.984375 C 6.0625 -2.15625 5.890625 -2.15625 5.78125 -2.15625 L 3.453125 -2.15625 L 3.453125 -4.5 C 3.453125 -4.609375 3.453125 -4.78125 3.265625 -4.78125 C 3.09375 -4.78125 3.09375 -4.609375 3.09375 -4.5 L 3.09375 -2.15625 L 0.75 -2.15625 C 0.640625 -2.15625 0.46875 -2.15625 0.46875 -1.984375 C 0.46875 -1.796875 0.640625 -1.796875 0.75 -1.796875 L 3.09375 -1.796875 L 3.09375 0.53125 C 3.09375 0.65625 3.09375 0.828125 3.265625 0.828125 C 3.453125 0.828125 3.453125 0.65625 3.453125 0.53125 Z M 3.453125 -1.796875 "/>
</g>
<g id="glyph-11-1">
<path d="M 5.796875 -2.640625 C 5.90625 -2.640625 6.0625 -2.640625 6.0625 -2.8125 C 6.0625 -3 5.875 -3 5.765625 -3 L 0.78125 -3 C 0.65625 -3 0.46875 -3 0.46875 -2.8125 C 0.46875 -2.640625 0.625 -2.640625 0.75 -2.640625 Z M 5.765625 -0.953125 C 5.875 -0.953125 6.0625 -0.953125 6.0625 -1.140625 C 6.0625 -1.328125 5.90625 -1.328125 5.796875 -1.328125 L 0.75 -1.328125 C 0.625 -1.328125 0.46875 -1.328125 0.46875 -1.140625 C 0.46875 -0.953125 0.65625 -0.953125 0.78125 -0.953125 Z M 5.765625 -0.953125 "/>
</g>
<g id="glyph-12-0">
<path d="M 2.8125 -5.296875 C 2.8125 -5.4375 2.8125 -5.671875 2.46875 -5.671875 C 2.3125 -5.671875 2.28125 -5.65625 2.171875 -5.5625 C 2.03125 -5.4375 1.734375 -5.140625 0.953125 -5.125 C 0.8125 -5.125 0.609375 -5.0625 0.609375 -4.84375 C 0.609375 -4.5625 0.875 -4.5625 0.984375 -4.5625 C 1.21875 -4.5625 1.5 -4.59375 1.734375 -4.65625 L 1.734375 -0.578125 L 1.109375 -0.578125 C 1 -0.578125 0.734375 -0.578125 0.734375 -0.28125 C 0.734375 0 1 0 1.109375 0 L 3.359375 0 C 3.453125 0 3.75 0 3.75 -0.28125 C 3.75 -0.578125 3.453125 -0.578125 3.359375 -0.578125 L 2.8125 -0.578125 Z M 2.8125 -5.296875 "/>
</g>
<g id="glyph-12-1">
<path d="M 1.734375 -0.828125 C 1.734375 -1.03125 1.71875 -1.03125 1.515625 -1.03125 L 0.90625 -1.03125 C 0.703125 -1.03125 0.6875 -1.03125 0.6875 -0.828125 L 0.6875 -0.21875 C 0.6875 -0.015625 0.703125 0 0.90625 0 L 1.515625 0 C 1.71875 0 1.734375 -0.015625 1.734375 -0.21875 Z M 1.734375 -0.828125 "/>
</g>
<g id="glyph-12-2">
<path d="M 0.515625 -0.671875 C 0.4375 -0.59375 0.4375 -0.578125 0.4375 -0.4375 L 0.4375 -0.375 C 0.4375 -0.09375 0.515625 0 0.8125 0 L 3.53125 0 C 3.828125 0 3.90625 -0.109375 3.90625 -0.375 L 3.90625 -0.46875 C 3.90625 -0.609375 3.90625 -0.75 3.75 -0.828125 C 3.6875 -0.859375 3.4375 -0.859375 3.28125 -0.859375 C 3.109375 -0.859375 2.921875 -0.84375 2.734375 -0.84375 L 1.453125 -0.84375 L 2.5 -1.84375 C 2.625 -1.9375 2.921875 -2.1875 3.046875 -2.296875 C 3.484375 -2.71875 3.90625 -3.140625 3.90625 -3.84375 C 3.90625 -4.8125 3.21875 -5.671875 2.046875 -5.671875 C 1.78125 -5.671875 1.328125 -5.625 0.9375 -5.328125 C 0.875 -5.265625 0.5 -4.984375 0.359375 -4.453125 L 0.765625 -3.9375 C 0.8125 -3.875 0.828125 -3.84375 0.890625 -3.84375 C 0.953125 -3.84375 0.96875 -3.90625 1 -4 C 1.15625 -4.546875 1.421875 -4.875 1.9375 -4.875 C 2.546875 -4.875 2.796875 -4.3125 2.796875 -3.828125 C 2.796875 -3.328125 2.5 -2.796875 2.03125 -2.296875 Z M 0.515625 -0.671875 "/>
</g>
<g id="glyph-12-3">
<path d="M 0.765625 -4.390625 C 0.828125 -4.296875 0.859375 -4.296875 0.875 -4.296875 C 0.9375 -4.296875 0.953125 -4.328125 0.984375 -4.390625 C 1.390625 -4.96875 1.953125 -4.96875 2.0625 -4.96875 C 2.5625 -4.96875 2.640625 -4.703125 2.640625 -4.3125 C 2.640625 -4.203125 2.640625 -3.828125 2.390625 -3.53125 C 2.203125 -3.296875 2 -3.28125 1.765625 -3.265625 C 1.671875 -3.265625 1.53125 -3.25 1.5 -3.234375 C 1.453125 -3.21875 1.453125 -3.171875 1.453125 -3.046875 L 1.453125 -2.90625 C 1.453125 -2.6875 1.453125 -2.6875 1.65625 -2.6875 L 2.015625 -2.6875 C 2.734375 -2.6875 2.8125 -2.234375 2.8125 -1.625 C 2.8125 -1.09375 2.765625 -0.578125 2.046875 -0.578125 C 1.796875 -0.578125 1.203125 -0.625 0.671875 -1.125 C 0.609375 -1.203125 0.59375 -1.203125 0.5625 -1.203125 C 0.484375 -1.203125 0.46875 -1.140625 0.453125 -1.109375 C 0.453125 -1.109375 0.359375 -0.609375 0.359375 -0.578125 C 0.359375 -0.46875 1.046875 0.171875 2.078125 0.171875 C 3.453125 0.171875 3.984375 -0.546875 3.984375 -1.609375 C 3.984375 -2.328125 3.609375 -2.796875 2.890625 -2.984375 C 3.53125 -3.328125 3.75 -3.84375 3.75 -4.296875 C 3.75 -5.5625 2.609375 -5.671875 2.09375 -5.671875 C 1.015625 -5.671875 0.484375 -4.890625 0.484375 -4.828125 C 0.484375 -4.78125 0.53125 -4.71875 0.53125 -4.71875 Z M 0.765625 -4.390625 "/>
</g>
<g id="glyph-13-0">
<path d="M 6.921875 -1.796875 C 6.640625 -1.59375 6.40625 -1.34375 6.203125 -1.0625 C 5.875 -0.546875 5.78125 -0.046875 5.78125 -0.015625 C 5.78125 0.109375 5.890625 0.109375 5.96875 0.109375 C 6.046875 0.109375 6.125 0.109375 6.140625 0.015625 C 6.359375 -0.875 6.859375 -1.53125 7.8125 -1.859375 C 7.875 -1.875 7.953125 -1.90625 7.953125 -1.984375 C 7.953125 -2.0625 7.875 -2.078125 7.84375 -2.09375 C 6.796875 -2.453125 6.328125 -3.1875 6.15625 -3.890625 C 6.125 -4.046875 6.125 -4.078125 5.96875 -4.078125 C 5.890625 -4.078125 5.78125 -4.078125 5.78125 -3.953125 C 5.78125 -3.9375 5.859375 -3.421875 6.203125 -2.890625 C 6.4375 -2.5625 6.71875 -2.3125 6.921875 -2.15625 L 0.765625 -2.15625 C 0.640625 -2.15625 0.46875 -2.15625 0.46875 -1.984375 C 0.46875 -1.796875 0.640625 -1.796875 0.765625 -1.796875 Z M 6.921875 -1.796875 "/>
</g>
</g>
<clipPath id="clip-0">
<path clip-rule="nonzero" d="M 1.023438 21 L 82 21 L 82 147 L 1.023438 147 Z M 1.023438 21 "/>
</clipPath>
<clipPath id="clip-1">
<path clip-rule="nonzero" d="M 327 45 L 371.480469 45 L 371.480469 122 L 327 122 Z M 327 45 "/>
</clipPath>
</defs>
<path fill-rule="nonzero" fill="rgb(96.116638%, 87.057495%, 80.587769%)" fill-opacity="1" d="M 7.410156 33.785156 L 69.390625 56.34375 L 69.390625 111.316406 L 7.410156 133.875 Z M 7.410156 33.785156 "/>
<g clip-path="url(#clip-0)">
<path fill="none" stroke-width="0.89664" stroke-linecap="butt" stroke-linejoin="miter" stroke="rgb(69.999695%, 34.997559%, 9.999084%)" stroke-opacity="1" stroke-miterlimit="10" d="M -36.850427 50.354566 L 25.513973 27.656235 L 25.513973 -27.656943 L -36.850427 -50.355273 Z M -36.850427 50.354566 " transform="matrix(0.993844, 0, 0, -0.993844, 44.033723, 83.829726)"/>
</g>
<g fill="rgb(0%, 0%, 0%)" fill-opacity="1">
<use xlink:href="#glyph-0-0" x="34.839674" y="86.87387"/>
</g>
<g fill="rgb(29.998779%, 29.998779%, 29.998779%)" fill-opacity="1">
<use xlink:href="#glyph-1-0" x="16.946511" y="134.811923"/>
</g>
<g fill="rgb(29.998779%, 29.998779%, 29.998779%)" fill-opacity="1">
<use xlink:href="#glyph-1-1" x="21.529622" y="134.811923"/>
<use xlink:href="#glyph-1-2" x="25.269934" y="134.811923"/>
</g>
<g fill="rgb(29.998779%, 29.998779%, 29.998779%)" fill-opacity="1">
<use xlink:href="#glyph-1-3" x="28.136556" y="134.811923"/>
<use xlink:href="#glyph-1-4" x="34.820325" y="134.811923"/>
<use xlink:href="#glyph-1-5" x="39.165804" y="134.811923"/>
<use xlink:href="#glyph-1-6" x="42.205105" y="134.811923"/>
<use xlink:href="#glyph-1-5" x="46.248001" y="134.811923"/>
<use xlink:href="#glyph-1-7" x="49.287301" y="134.811923"/>
<use xlink:href="#glyph-1-8" x="51.295283" y="134.811923"/>
<use xlink:href="#glyph-1-9" x="55.503729" y="134.811923"/>
</g>
<g fill="rgb(29.998779%, 29.998779%, 29.998779%)" fill-opacity="1">
<use xlink:href="#glyph-1-6" x="16.771595" y="144.21766"/>
<use xlink:href="#glyph-1-0" x="20.814491" y="144.21766"/>
<use xlink:href="#glyph-1-0" x="25.15997" y="144.21766"/>
<use xlink:href="#glyph-1-10" x="29.505449" y="144.21766"/>
<use xlink:href="#glyph-1-7" x="31.513431" y="144.21766"/>
<use xlink:href="#glyph-1-1" x="33.521413" y="144.21766"/>
<use xlink:href="#glyph-1-11" x="37.261726" y="144.21766"/>
</g>
<g fill="rgb(29.998779%, 29.998779%, 29.998779%)" fill-opacity="1">
<use xlink:href="#glyph-1-5" x="44.411251" y="144.21766"/>
<use xlink:href="#glyph-1-8" x="47.450552" y="144.21766"/>
</g>
<g fill="rgb(29.998779%, 29.998779%, 29.998779%)" fill-opacity="1">
<use xlink:href="#glyph-2-0" x="54.463043" y="144.21766"/>
</g>
<g fill="rgb(0%, 0%, 0%)" fill-opacity="1">
<use xlink:href="#glyph-3-0" x="75.703548" y="85.973447"/>
</g>
<path fill-rule="nonzero" fill="rgb(97.880554%, 92.939758%, 89.411926%)" fill-opacity="1" stroke-width="0.69739" stroke-linecap="butt" stroke-linejoin="miter" stroke="rgb(69.999695%, 34.997559%, 9.999084%)" stroke-opacity="1" stroke-miterlimit="10" d="M 53.29044 -31.457685 L 53.29044 21.253537 C 53.29044 22.354062 54.182652 23.246274 55.283177 23.246274 L 119.329808 23.246274 C 120.430333 23.246274 121.322544 22.354062 121.322544 21.253537 L 121.322544 -31.457685 C 121.322544 -32.55821 120.430333 -33.450421 119.329808 -33.450421 L 55.283177 -33.450421 C 54.182652 -33.450421 53.29044 -32.55821 53.29044 -31.457685 Z M 53.29044 -31.457685 " transform="matrix(0.993844, 0, 0, -0.993844, 44.033723, 83.829726)"/>
<path fill-rule="nonzero" fill="rgb(97.175598%, 90.586853%, 85.882568%)" fill-opacity="1" stroke-width="0.69739" stroke-linecap="butt" stroke-linejoin="miter" stroke="rgb(69.999695%, 34.997559%, 9.999084%)" stroke-opacity="1" stroke-miterlimit="10" d="M 50.73958 -28.906825 L 50.73958 23.804397 C 50.73958 24.904922 51.631792 25.797134 52.732317 25.797134 L 116.778948 25.797134 C 117.879473 25.797134 118.771684 24.904922 118.771684 23.804397 L 118.771684 -28.906825 C 118.771684 -30.00735 117.879473 -30.899561 116.778948 -30.899561 L 52.732317 -30.899561 C 51.631792 -30.899561 50.73958 -30.00735 50.73958 -28.906825 Z M 50.73958 -28.906825 " transform="matrix(0.993844, 0, 0, -0.993844, 44.033723, 83.829726)"/>
<path fill-rule="nonzero" fill="rgb(96.116638%, 87.057495%, 80.587769%)" fill-opacity="1" stroke-width="0.79701" stroke-linecap="butt" stroke-linejoin="miter" stroke="rgb(69.999695%, 34.997559%, 9.999084%)" stroke-opacity="1" stroke-miterlimit="10" d="M 114.628993 28.744969 L 50.582362 28.744969 C 49.481837 28.744969 48.589626 27.852758 48.589626 26.752232 L 48.589626 -25.955059 C 48.589626 -27.055584 49.481837 -27.947796 50.582362 -27.947796 L 114.628993 -27.947796 C 115.729518 -27.947796 116.62173 -27.055584 116.62173 -25.955059 L 116.62173 26.752232 C 116.62173 27.852758 115.729518 28.744969 114.628993 28.744969 Z M 114.628993 28.744969 " transform="matrix(0.993844, 0, 0, -0.993844, 44.033723, 83.829726)"/>
<g fill="rgb(0%, 0%, 0%)" fill-opacity="1">
<use xlink:href="#glyph-4-0" x="97.114917" y="76.949346"/>
</g>
<g fill="rgb(0%, 0%, 0%)" fill-opacity="1">
<use xlink:href="#glyph-5-0" x="102.592984" y="78.340727"/>
</g>
<path fill="none" stroke-width="0.379" stroke-linecap="butt" stroke-linejoin="miter" stroke="rgb(0%, 0%, 0%)" stroke-opacity="1" stroke-miterlimit="10" d="M -0.00164632 0.00108446 L 10.005271 0.00108446 " transform="matrix(0.993844, 0, 0, -0.993844, 97.114917, 79.868265)"/>
<g fill="rgb(0%, 0%, 0%)" fill-opacity="1">
<use xlink:href="#glyph-6-0" x="100.271365" y="85.119736"/>
</g>
<g fill="rgb(0%, 0%, 0%)" fill-opacity="1">
<use xlink:href="#glyph-7-0" x="111.300049" y="82.095469"/>
<use xlink:href="#glyph-7-1" x="114.522339" y="82.095469"/>
<use xlink:href="#glyph-7-2" x="120.380563" y="82.095469"/>
<use xlink:href="#glyph-7-2" x="123.309674" y="82.095469"/>
</g>
<g fill="rgb(0%, 0%, 0%)" fill-opacity="1">
<use xlink:href="#glyph-8-0" x="129.295328" y="82.095469"/>
<use xlink:href="#glyph-8-1" x="132.87763" y="82.095469"/>
<use xlink:href="#glyph-8-2" x="137.457096" y="82.095469"/>
<use xlink:href="#glyph-8-3" x="142.545392" y="82.095469"/>
<use xlink:href="#glyph-8-4" x="147.633687" y="82.095469"/>
</g>
<g fill="rgb(0%, 0%, 0%)" fill-opacity="1">
<use xlink:href="#glyph-8-5" x="152.713072" y="82.095469"/>
</g>
<g fill="rgb(0%, 0%, 0%)" fill-opacity="1">
<use xlink:href="#glyph-9-0" x="101.137997" y="93.976871"/>
<use xlink:href="#glyph-9-1" x="105.918341" y="93.976871"/>
<use xlink:href="#glyph-9-2" x="108.960018" y="93.976871"/>
</g>
<g fill="rgb(0%, 0%, 0%)" fill-opacity="1">
<use xlink:href="#glyph-9-3" x="112.435768" y="93.976871"/>
<use xlink:href="#glyph-9-4" x="116.781247" y="93.976871"/>
</g>
<g fill="rgb(0%, 0%, 0%)" fill-opacity="1">
<use xlink:href="#glyph-9-3" x="123.742252" y="93.976871"/>
<use xlink:href="#glyph-9-5" x="128.087731" y="93.976871"/>
</g>
<g fill="rgb(0%, 0%, 0%)" fill-opacity="1">
<use xlink:href="#glyph-9-6" x="135.909752" y="93.976871"/>
<use xlink:href="#glyph-9-7" x="140.255232" y="93.976871"/>
</g>
<g fill="rgb(0%, 0%, 0%)" fill-opacity="1">
<use xlink:href="#glyph-9-7" x="142.863628" y="93.976871"/>
</g>
<g fill="rgb(0%, 0%, 0%)" fill-opacity="1">
<use xlink:href="#glyph-2-1" x="148.078045" y="93.976871"/>
</g>
<path fill-rule="nonzero" fill="rgb(96.374512%, 90.72876%, 91.387939%)" fill-opacity="1" stroke-width="0.69739" stroke-linecap="butt" stroke-linejoin="miter" stroke="rgb(59.333801%, 19.332886%, 23.997498%)" stroke-opacity="1" stroke-miterlimit="10" d="M 134.080775 -31.457685 L 134.080775 21.253537 C 134.080775 22.354062 134.972986 23.246274 136.073511 23.246274 L 208.625629 23.246274 C 209.726154 23.246274 210.618365 22.354062 210.618365 21.253537 L 210.618365 -31.457685 C 210.618365 -32.55821 209.726154 -33.450421 208.625629 -33.450421 L 136.073511 -33.450421 C 134.972986 -33.450421 134.080775 -32.55821 134.080775 -31.457685 Z M 134.080775 -31.457685 " transform="matrix(0.993844, 0, 0, -0.993844, 44.033723, 83.829726)"/>
<path fill-rule="nonzero" fill="rgb(95.167542%, 87.638855%, 88.517761%)" fill-opacity="1" stroke-width="0.69739" stroke-linecap="butt" stroke-linejoin="miter" stroke="rgb(59.333801%, 19.332886%, 23.997498%)" stroke-opacity="1" stroke-miterlimit="10" d="M 131.529915 -28.906825 L 131.529915 23.804397 C 131.529915 24.904922 132.422126 25.797134 133.522651 25.797134 L 206.074769 25.797134 C 207.175294 25.797134 208.063575 24.904922 208.063575 23.804397 L 208.063575 -28.906825 C 208.063575 -30.00735 207.175294 -30.899561 206.074769 -30.899561 L 133.522651 -30.899561 C 132.422126 -30.899561 131.529915 -30.00735 131.529915 -28.906825 Z M 131.529915 -28.906825 " transform="matrix(0.993844, 0, 0, -0.993844, 44.033723, 83.829726)"/>
<path fill-rule="nonzero" fill="rgb(93.354797%, 83.001709%, 84.211731%)" fill-opacity="1" stroke-width="0.79701" stroke-linecap="butt" stroke-linejoin="miter" stroke="rgb(59.333801%, 19.332886%, 23.997498%)" stroke-opacity="1" stroke-miterlimit="10" d="M 209.293805 28.744969 L 131.368766 28.744969 C 130.268241 28.744969 129.37603 27.852758 129.37603 26.752232 L 129.37603 -25.955059 C 129.37603 -27.055584 130.268241 -27.947796 131.368766 -27.947796 L 209.293805 -27.947796 C 210.39433 -27.947796 211.286541 -27.055584 211.286541 -25.955059 L 211.286541 26.752232 C 211.286541 27.852758 210.39433 28.744969 209.293805 28.744969 Z M 209.293805 28.744969 " transform="matrix(0.993844, 0, 0, -0.993844, 44.033723, 83.829726)"/>
<g fill="rgb(0%, 0%, 0%)" fill-opacity="1">
<use xlink:href="#glyph-0-1" x="175.912813" y="80.586814"/>
</g>
<g fill="rgb(0%, 0%, 0%)" fill-opacity="1">
<use xlink:href="#glyph-4-1" x="182.841892" y="81.576683"/>
</g>
<g fill="rgb(0%, 0%, 0%)" fill-opacity="1">
<use xlink:href="#glyph-7-3" x="190.206274" y="80.586814"/>
<use xlink:href="#glyph-7-4" x="196.064497" y="80.586814"/>
<use xlink:href="#glyph-7-5" x="201.19022" y="80.586814"/>
<use xlink:href="#glyph-7-6" x="205.539777" y="80.586814"/>
<use xlink:href="#glyph-7-7" x="209.640711" y="80.586814"/>
<use xlink:href="#glyph-7-4" x="212.569823" y="80.586814"/>
<use xlink:href="#glyph-7-2" x="217.695545" y="80.586814"/>
</g>
<g fill="rgb(0%, 0%, 0%)" fill-opacity="1">
<use xlink:href="#glyph-8-0" x="223.681199" y="80.586814"/>
<use xlink:href="#glyph-8-1" x="227.263502" y="80.586814"/>
<use xlink:href="#glyph-8-2" x="231.842967" y="80.586814"/>
<use xlink:href="#glyph-8-3" x="236.931263" y="80.586814"/>
<use xlink:href="#glyph-8-4" x="242.019559" y="80.586814"/>
<use xlink:href="#glyph-8-5" x="247.107854" y="80.586814"/>
</g>
<g fill="rgb(0%, 0%, 0%)" fill-opacity="1">
<use xlink:href="#glyph-9-0" x="182.45628" y="92.468216"/>
<use xlink:href="#glyph-9-1" x="187.236624" y="92.468216"/>
<use xlink:href="#glyph-9-2" x="190.278301" y="92.468216"/>
</g>
<g fill="rgb(0%, 0%, 0%)" fill-opacity="1">
<use xlink:href="#glyph-9-3" x="193.754051" y="92.468216"/>
<use xlink:href="#glyph-9-4" x="198.09953" y="92.468216"/>
</g>
<g fill="rgb(0%, 0%, 0%)" fill-opacity="1">
<use xlink:href="#glyph-9-3" x="205.060535" y="92.468216"/>
<use xlink:href="#glyph-9-5" x="209.406014" y="92.468216"/>
</g>
<g fill="rgb(0%, 0%, 0%)" fill-opacity="1">
<use xlink:href="#glyph-9-8" x="217.228036" y="92.468216"/>
</g>
<g fill="rgb(0%, 0%, 0%)" fill-opacity="1">
<use xlink:href="#glyph-9-9" x="224.615192" y="92.468216"/>
<use xlink:href="#glyph-9-7" x="228.526599" y="92.468216"/>
<use xlink:href="#glyph-9-9" x="230.699338" y="92.468216"/>
<use xlink:href="#glyph-9-10" x="234.610745" y="92.468216"/>
<use xlink:href="#glyph-9-11" x="241.563829" y="92.468216"/>
</g>
<path fill-rule="nonzero" fill="rgb(97.880554%, 92.939758%, 89.411926%)" fill-opacity="1" stroke-width="0.69739" stroke-linecap="butt" stroke-linejoin="miter" stroke="rgb(69.999695%, 34.997559%, 9.999084%)" stroke-opacity="1" stroke-miterlimit="10" d="M 223.372665 -31.457685 L 223.372665 21.253537 C 223.372665 22.354062 224.264877 23.246274 225.365402 23.246274 L 289.412033 23.246274 C 290.512558 23.246274 291.404769 22.354062 291.404769 21.253537 L 291.404769 -31.457685 C 291.404769 -32.55821 290.512558 -33.450421 289.412033 -33.450421 L 225.365402 -33.450421 C 224.264877 -33.450421 223.372665 -32.55821 223.372665 -31.457685 Z M 223.372665 -31.457685 " transform="matrix(0.993844, 0, 0, -0.993844, 44.033723, 83.829726)"/>
<path fill-rule="nonzero" fill="rgb(97.175598%, 90.586853%, 85.882568%)" fill-opacity="1" stroke-width="0.69739" stroke-linecap="butt" stroke-linejoin="miter" stroke="rgb(69.999695%, 34.997559%, 9.999084%)" stroke-opacity="1" stroke-miterlimit="10" d="M 220.821805 -28.906825 L 220.821805 23.804397 C 220.821805 24.904922 221.714017 25.797134 222.814542 25.797134 L 286.861173 25.797134 C 287.961698 25.797134 288.853909 24.904922 288.853909 23.804397 L 288.853909 -28.906825 C 288.853909 -30.00735 287.961698 -30.899561 286.861173 -30.899561 L 222.814542 -30.899561 C 221.714017 -30.899561 220.821805 -30.00735 220.821805 -28.906825 Z M 220.821805 -28.906825 " transform="matrix(0.993844, 0, 0, -0.993844, 44.033723, 83.829726)"/>
<path fill-rule="nonzero" fill="rgb(96.116638%, 87.057495%, 80.587769%)" fill-opacity="1" stroke-width="0.79701" stroke-linecap="butt" stroke-linejoin="miter" stroke="rgb(69.999695%, 34.997559%, 9.999084%)" stroke-opacity="1" stroke-miterlimit="10" d="M 284.707288 28.744969 L 220.660657 28.744969 C 219.560132 28.744969 218.66792 27.852758 218.66792 26.752232 L 218.66792 -25.955059 C 218.66792 -27.055584 219.560132 -27.947796 220.660657 -27.947796 L 284.707288 -27.947796 C 285.807813 -27.947796 286.700024 -27.055584 286.700024 -25.955059 L 286.700024 26.752232 C 286.700024 27.852758 285.807813 28.744969 284.707288 28.744969 Z M 284.707288 28.744969 " transform="matrix(0.993844, 0, 0, -0.993844, 44.033723, 83.829726)"/>
<g fill="rgb(0%, 0%, 0%)" fill-opacity="1">
<use xlink:href="#glyph-4-0" x="266.146869" y="76.949346"/>
</g>
<g fill="rgb(0%, 0%, 0%)" fill-opacity="1">
<use xlink:href="#glyph-5-0" x="271.624935" y="78.340727"/>
</g>
<path fill="none" stroke-width="0.379" stroke-linecap="butt" stroke-linejoin="miter" stroke="rgb(0%, 0%, 0%)" stroke-opacity="1" stroke-miterlimit="10" d="M 0.00157862 0.00108446 L 10.004566 0.00108446 " transform="matrix(0.993844, 0, 0, -0.993844, 266.146869, 79.868265)"/>
<g fill="rgb(0%, 0%, 0%)" fill-opacity="1">
<use xlink:href="#glyph-6-0" x="269.303316" y="85.119736"/>
</g>
<g fill="rgb(0%, 0%, 0%)" fill-opacity="1">
<use xlink:href="#glyph-7-0" x="280.332" y="82.095469"/>
<use xlink:href="#glyph-7-1" x="283.554291" y="82.095469"/>
<use xlink:href="#glyph-7-2" x="289.412514" y="82.095469"/>
<use xlink:href="#glyph-7-2" x="292.341625" y="82.095469"/>
</g>
<g fill="rgb(0%, 0%, 0%)" fill-opacity="1">
<use xlink:href="#glyph-8-0" x="298.327279" y="82.095469"/>
<use xlink:href="#glyph-8-1" x="301.909582" y="82.095469"/>
<use xlink:href="#glyph-8-2" x="306.489048" y="82.095469"/>
</g>
<g fill="rgb(0%, 0%, 0%)" fill-opacity="1">
<use xlink:href="#glyph-8-3" x="311.568432" y="82.095469"/>
<use xlink:href="#glyph-8-4" x="316.656727" y="82.095469"/>
<use xlink:href="#glyph-8-5" x="321.745023" y="82.095469"/>
</g>
<g fill="rgb(0%, 0%, 0%)" fill-opacity="1">
<use xlink:href="#glyph-9-0" x="270.169948" y="93.976871"/>
<use xlink:href="#glyph-9-1" x="274.950292" y="93.976871"/>
<use xlink:href="#glyph-9-2" x="277.991969" y="93.976871"/>
</g>
<g fill="rgb(0%, 0%, 0%)" fill-opacity="1">
<use xlink:href="#glyph-9-3" x="281.467719" y="93.976871"/>
<use xlink:href="#glyph-9-4" x="285.813198" y="93.976871"/>
</g>
<g fill="rgb(0%, 0%, 0%)" fill-opacity="1">
<use xlink:href="#glyph-9-3" x="292.774203" y="93.976871"/>
<use xlink:href="#glyph-9-5" x="297.119682" y="93.976871"/>
</g>
<g fill="rgb(0%, 0%, 0%)" fill-opacity="1">
<use xlink:href="#glyph-9-6" x="304.941703" y="93.976871"/>
<use xlink:href="#glyph-9-7" x="309.287183" y="93.976871"/>
</g>
<g fill="rgb(0%, 0%, 0%)" fill-opacity="1">
<use xlink:href="#glyph-9-7" x="311.895579" y="93.976871"/>
</g>
<g fill="rgb(0%, 0%, 0%)" fill-opacity="1">
<use xlink:href="#glyph-2-1" x="317.109996" y="93.976871"/>
</g>
<path fill-rule="nonzero" fill="rgb(91.723633%, 93.725586%, 95.411682%)" fill-opacity="1" d="M 364.207031 55.65625 L 338.015625 55.65625 C 337.46875 55.65625 337.027344 56.101562 337.027344 56.648438 L 337.027344 111.011719 C 337.027344 111.558594 337.46875 112.003906 338.015625 112.003906 L 364.207031 112.003906 C 364.753906 112.003906 365.199219 111.558594 365.199219 111.011719 L 365.199219 56.648438 C 365.199219 56.101562 364.753906 55.65625 364.207031 55.65625 Z M 364.207031 55.65625 "/>
<g clip-path="url(#clip-1)">
<path fill="none" stroke-width="0.69739" stroke-linecap="butt" stroke-linejoin="miter" stroke="rgb(17.254639%, 37.255859%, 54.116821%)" stroke-opacity="1" stroke-miterlimit="10" d="M 322.156585 28.347994 L 295.802939 28.347994 C 295.252677 28.347994 294.808536 27.899923 294.808536 27.34966 L 294.808536 -27.350368 C 294.808536 -27.900631 295.252677 -28.348701 295.802939 -28.348701 L 322.156585 -28.348701 C 322.706848 -28.348701 323.154918 -27.900631 323.154918 -27.350368 L 323.154918 27.34966 C 323.154918 27.899923 322.706848 28.347994 322.156585 28.347994 Z M 322.156585 28.347994 " transform="matrix(0.993844, 0, 0, -0.993844, 44.033723, 83.829726)"/>
</g>
<g fill="rgb(0%, 0%, 0%)" fill-opacity="1">
<use xlink:href="#glyph-0-2" x="346.722751" y="87.372779"/>
</g>
<g fill="rgb(0%, 0%, 0%)" fill-opacity="1">
<use xlink:href="#glyph-10-0" x="352.824951" y="83.587229"/>
</g>
<path fill="none" stroke-width="0.99628" stroke-linecap="butt" stroke-linejoin="miter" stroke="rgb(25%, 25%, 25%)" stroke-opacity="1" stroke-miterlimit="10" d="M 25.965974 0.00161139 L 24.547083 0.00161139 " transform="matrix(0.993844, 0, 0, -0.993844, 44.033723, 83.829726)"/>
<path fill-rule="nonzero" fill="rgb(25%, 25%, 25%)" fill-opacity="1" stroke-width="0.99628" stroke-linecap="butt" stroke-linejoin="miter" stroke="rgb(25%, 25%, 25%)" stroke-opacity="1" stroke-miterlimit="10" d="M 4.818413 0.00161139 L 1.607238 1.22005 L 2.684181 0.00161139 L 1.607238 -1.220758 Z M 4.818413 0.00161139 " transform="matrix(0.993844, 0, 0, -0.993844, 66.008125, 83.829726)"/>
<path fill="none" stroke-width="0.99628" stroke-linecap="butt" stroke-linejoin="miter" stroke="rgb(25%, 25%, 25%)" stroke-opacity="1" stroke-miterlimit="10" d="M 117.018705 0.398587 L 125.178312 0.398587 " transform="matrix(0.993844, 0, 0, -0.993844, 44.033723, 83.829726)"/>
<path fill-rule="nonzero" fill="rgb(25%, 25%, 25%)" fill-opacity="1" stroke-width="0.99628" stroke-linecap="butt" stroke-linejoin="miter" stroke="rgb(25%, 25%, 25%)" stroke-opacity="1" stroke-miterlimit="10" d="M 4.818373 0.000086517 L 1.607198 1.218525 L 2.684141 0.000086517 L 1.607198 -1.218352 Z M 4.818373 0.000086517 " transform="matrix(0.993844, 0, 0, -0.993844, 166.019884, 83.43368)"/>
<path fill="none" stroke-width="0.99628" stroke-linecap="butt" stroke-linejoin="miter" stroke="rgb(25%, 25%, 25%)" stroke-opacity="1" stroke-miterlimit="10" d="M 211.683516 0.398587 L 214.470203 0.398587 " transform="matrix(0.993844, 0, 0, -0.993844, 44.033723, 83.829726)"/>
<path fill-rule="nonzero" fill="rgb(25%, 25%, 25%)" fill-opacity="1" stroke-width="0.99628" stroke-linecap="butt" stroke-linejoin="miter" stroke="rgb(25%, 25%, 25%)" stroke-opacity="1" stroke-miterlimit="10" d="M 4.817994 0.000086517 L 1.606819 1.218525 L 2.687692 0.000086517 L 1.606819 -1.218352 Z M 4.817994 0.000086517 " transform="matrix(0.993844, 0, 0, -0.993844, 254.762448, 83.43368)"/>
<path fill="none" stroke-width="0.99628" stroke-linecap="butt" stroke-linejoin="miter" stroke="rgb(25%, 25%, 25%)" stroke-opacity="1" stroke-miterlimit="10" d="M 287.10093 0.398587 L 290.665845 0.205995 " transform="matrix(0.993844, 0, 0, -0.993844, 44.033723, 83.829726)"/>
<path fill-rule="nonzero" fill="rgb(25%, 25%, 25%)" fill-opacity="1" stroke-width="0.99628" stroke-linecap="butt" stroke-linejoin="miter" stroke="rgb(25%, 25%, 25%)" stroke-opacity="1" stroke-miterlimit="10" d="M 4.816085 -0.000483279 L 1.608834 1.219341 L 2.686581 -0.00162304 L 1.607137 -1.221289 Z M 4.816085 -0.000483279 " transform="matrix(0.992353, 0.0537272, 0.0537272, -0.992353, 330.490301, 83.494672)"/>
<path fill="none" stroke-width="0.99628" stroke-linecap="butt" stroke-linejoin="miter" stroke="rgb(25%, 25%, 25%)" stroke-opacity="1" stroke-miterlimit="10" d="M 44.49017 0.00161139 L 44.411561 -0.01018 " transform="matrix(0.993844, 0, 0, -0.993844, 44.033723, 83.829726)"/>
<path fill-rule="nonzero" fill="rgb(25%, 25%, 25%)" fill-opacity="1" stroke-width="0.99628" stroke-linecap="butt" stroke-linejoin="miter" stroke="rgb(25%, 25%, 25%)" stroke-opacity="1" stroke-miterlimit="10" d="M 4.816147 -0.00108737 L 1.606983 1.218477 L 2.685315 -0.000732618 L 1.608947 -1.220968 Z M 4.816147 -0.00108737 " transform="matrix(0.988079, -0.10649, -0.10649, -0.988079, 85.764586, 84.097736)"/>
<path fill="none" stroke-width="0.3985" stroke-linecap="butt" stroke-linejoin="miter" stroke="rgb(44.999695%, 44.999695%, 44.999695%)" stroke-opacity="1" stroke-miterlimit="10" d="M 48.18872 -46.770706 C 48.935505 -48.268206 50.680624 -49.262609 53.172527 -49.262609 L 162.662984 -49.262609 C 165.154887 -49.262609 166.896075 -50.260942 167.64286 -51.754512 C 168.393575 -50.260942 170.134763 -49.262609 172.626666 -49.262609 L 282.117123 -49.262609 C 284.609027 -49.262609 286.354145 -48.268206 287.10093 -46.770706 " transform="matrix(0.993844, 0, 0, -0.993844, 44.033723, 83.829726)"/>
<g fill="rgb(29.998779%, 29.998779%, 29.998779%)" fill-opacity="1">
<use xlink:href="#glyph-2-2" x="147.371608" y="146.243114"/>
</g>
<g fill="rgb(29.998779%, 29.998779%, 29.998779%)" fill-opacity="1">
<use xlink:href="#glyph-4-2" x="153.70935" y="147.640458"/>
</g>
<g fill="rgb(29.998779%, 29.998779%, 29.998779%)" fill-opacity="1">
<use xlink:href="#glyph-1-12" x="161.259581" y="146.243114"/>
<use xlink:href="#glyph-1-4" x="163.831541" y="146.243114"/>
<use xlink:href="#glyph-1-10" x="168.17702" y="146.243114"/>
<use xlink:href="#glyph-1-10" x="170.185002" y="146.243114"/>
</g>
<g fill="rgb(29.998779%, 29.998779%, 29.998779%)" fill-opacity="1">
<use xlink:href="#glyph-11-0" x="174.99703" y="146.243114"/>
</g>
<g fill="rgb(29.998779%, 29.998779%, 29.998779%)" fill-opacity="1">
<use xlink:href="#glyph-2-2" x="183.879678" y="146.243114"/>
</g>
<g fill="rgb(29.998779%, 29.998779%, 29.998779%)" fill-opacity="1">
<use xlink:href="#glyph-4-1" x="190.220188" y="147.232982"/>
</g>
<g fill="rgb(29.998779%, 29.998779%, 29.998779%)" fill-opacity="1">
<use xlink:href="#glyph-1-0" x="197.337103" y="146.243114"/>
<use xlink:href="#glyph-1-6" x="201.682582" y="146.243114"/>
</g>
<g fill="rgb(29.998779%, 29.998779%, 29.998779%)" fill-opacity="1">
<use xlink:href="#glyph-1-2" x="205.495768" y="146.243114"/>
<use xlink:href="#glyph-1-5" x="208.370311" y="146.243114"/>
<use xlink:href="#glyph-1-7" x="211.409612" y="146.243114"/>
</g>
<g fill="rgb(29.998779%, 29.998779%, 29.998779%)" fill-opacity="1">
<use xlink:href="#glyph-1-6" x="213.409673" y="146.243114"/>
</g>
<g fill="rgb(29.998779%, 29.998779%, 29.998779%)" fill-opacity="1">
<use xlink:href="#glyph-1-10" x="217.46049" y="146.243114"/>
</g>
<g fill="rgb(29.998779%, 29.998779%, 29.998779%)" fill-opacity="1">
<use xlink:href="#glyph-1-2" x="222.272518" y="146.243114"/>
<use xlink:href="#glyph-1-8" x="225.147061" y="146.243114"/>
<use xlink:href="#glyph-1-4" x="229.355507" y="146.243114"/>
<use xlink:href="#glyph-1-9" x="233.700986" y="146.243114"/>
<use xlink:href="#glyph-1-11" x="238.046465" y="146.243114"/>
<use xlink:href="#glyph-1-13" x="242.391945" y="146.243114"/>
</g>
<g fill="rgb(29.998779%, 29.998779%, 29.998779%)" fill-opacity="1">
<use xlink:href="#glyph-1-7" x="248.422228" y="146.243114"/>
<use xlink:href="#glyph-1-9" x="250.43021" y="146.243114"/>
</g>
<g fill="rgb(29.998779%, 29.998779%, 29.998779%)" fill-opacity="1">
<use xlink:href="#glyph-1-5" x="257.579735" y="146.243114"/>
<use xlink:href="#glyph-1-8" x="260.619036" y="146.243114"/>
<use xlink:href="#glyph-1-5" x="264.827481" y="146.243114"/>
<use xlink:href="#glyph-1-6" x="267.866782" y="146.243114"/>
<use xlink:href="#glyph-1-10" x="271.909678" y="146.243114"/>
</g>
<g fill="rgb(44.999695%, 44.999695%, 44.999695%)" fill-opacity="1">
<use xlink:href="#glyph-1-1" x="41.897953" y="14.741684"/>
<use xlink:href="#glyph-1-6" x="45.638265" y="14.741684"/>
<use xlink:href="#glyph-1-14" x="49.681161" y="14.741684"/>
<use xlink:href="#glyph-1-15" x="53.421473" y="14.741684"/>
</g>
<g fill="rgb(44.999695%, 44.999695%, 44.999695%)" fill-opacity="1">
<use xlink:href="#glyph-1-2" x="60.570998" y="14.741684"/>
<use xlink:href="#glyph-1-8" x="63.445542" y="14.741684"/>
<use xlink:href="#glyph-1-4" x="67.653987" y="14.741684"/>
<use xlink:href="#glyph-1-9" x="71.999466" y="14.741684"/>
<use xlink:href="#glyph-1-11" x="76.344946" y="14.741684"/>
</g>
<g fill="rgb(44.999695%, 44.999695%, 44.999695%)" fill-opacity="1">
<use xlink:href="#glyph-11-1" x="83.494471" y="14.741684"/>
</g>
<g fill="rgb(44.999695%, 44.999695%, 44.999695%)" fill-opacity="1">
<use xlink:href="#glyph-12-0" x="95.656427" y="14.741684"/>
<use xlink:href="#glyph-12-1" x="100.012995" y="14.741684"/>
</g>
<g fill="rgb(44.999695%, 44.999695%, 44.999695%)" fill-opacity="1">
<use xlink:href="#glyph-1-16" x="103.835686" y="14.741684"/>
<use xlink:href="#glyph-1-11" x="109.446155" y="14.741684"/>
<use xlink:href="#glyph-1-11" x="113.791634" y="14.741684"/>
</g>
<g fill="rgb(44.999695%, 44.999695%, 44.999695%)" fill-opacity="1">
<use xlink:href="#glyph-1-2" x="120.941159" y="14.741684"/>
<use xlink:href="#glyph-1-8" x="123.815703" y="14.741684"/>
<use xlink:href="#glyph-1-4" x="128.024148" y="14.741684"/>
<use xlink:href="#glyph-1-9" x="132.369627" y="14.741684"/>
<use xlink:href="#glyph-1-11" x="136.715107" y="14.741684"/>
</g>
<g fill="rgb(44.999695%, 44.999695%, 44.999695%)" fill-opacity="1">
<use xlink:href="#glyph-1-14" x="143.864632" y="14.741684"/>
<use xlink:href="#glyph-1-8" x="147.604944" y="14.741684"/>
<use xlink:href="#glyph-1-9" x="151.81339" y="14.741684"/>
<use xlink:href="#glyph-1-13" x="156.158869" y="14.741684"/>
<use xlink:href="#glyph-1-5" x="159.385106" y="14.741684"/>
<use xlink:href="#glyph-1-6" x="162.424407" y="14.741684"/>
<use xlink:href="#glyph-1-9" x="166.467303" y="14.741684"/>
<use xlink:href="#glyph-1-5" x="170.812782" y="14.741684"/>
<use xlink:href="#glyph-1-13" x="173.852083" y="14.741684"/>
</g>
<g fill="rgb(44.999695%, 44.999695%, 44.999695%)" fill-opacity="1">
<use xlink:href="#glyph-13-0" x="182.694333" y="14.741684"/>
</g>
<g fill="rgb(44.999695%, 44.999695%, 44.999695%)" fill-opacity="1">
<use xlink:href="#glyph-12-2" x="196.718524" y="14.741684"/>
<use xlink:href="#glyph-12-1" x="201.075093" y="14.741684"/>
</g>
<g fill="rgb(44.999695%, 44.999695%, 44.999695%)" fill-opacity="1">
<use xlink:href="#glyph-1-17" x="204.897784" y="14.741684"/>
<use xlink:href="#glyph-1-18" x="209.57357" y="14.741684"/>
<use xlink:href="#glyph-1-19" x="212.3792" y="14.741684"/>
</g>
<g fill="rgb(44.999695%, 44.999695%, 44.999695%)" fill-opacity="1">
<use xlink:href="#glyph-1-8" x="216.95439" y="14.741684"/>
</g>
<g fill="rgb(44.999695%, 44.999695%, 44.999695%)" fill-opacity="1">
<use xlink:href="#glyph-1-20" x="220.933125" y="14.741684"/>
</g>
<g fill="rgb(44.999695%, 44.999695%, 44.999695%)" fill-opacity="1">
<use xlink:href="#glyph-13-0" x="230.419356" y="14.741684"/>
</g>
<g fill="rgb(44.999695%, 44.999695%, 44.999695%)" fill-opacity="1">
<use xlink:href="#glyph-12-3" x="244.451467" y="14.741684"/>
<use xlink:href="#glyph-12-1" x="248.808036" y="14.741684"/>
</g>
<g fill="rgb(44.999695%, 44.999695%, 44.999695%)" fill-opacity="1">
<use xlink:href="#glyph-1-21" x="252.630727" y="14.741684"/>
<use xlink:href="#glyph-1-22" x="259.974318" y="14.741684"/>
<use xlink:href="#glyph-1-17" x="266.052919" y="14.741684"/>
</g>
<g fill="rgb(44.999695%, 44.999695%, 44.999695%)" fill-opacity="1">
<use xlink:href="#glyph-1-3" x="273.532752" y="14.741684"/>
<use xlink:href="#glyph-1-7" x="280.21652" y="14.741684"/>
<use xlink:href="#glyph-1-20" x="282.224503" y="14.741684"/>
</g>
</svg>
